<svg xmlns="http://www.w3.org/2000/svg" viewBox="0 0 3034 2214"><defs><style>.cls-1{fill:#fff;}.cls-2{fill:none;stroke:#000;stroke-linecap:round;stroke-linejoin:round;stroke-width:2px;}</style></defs><title>Asset 4</title><g id="Layer_2" data-name="Layer 2"><g id="Layer_1-2" data-name="Layer 1"><path class="cls-1" d="M0,2214V0H3034V2214Zm351.22-786.42a44.15,44.15,0,0,1-5.33,1c-32,1.13-63.92,3.1-95.88,3.12a805.21,805.21,0,0,0-132.32,10.8c-4.63.78-9.15,1.77-10.6,7.06,2.46,4.42,6.18,4.09,9.84,3.66,6.62-.77,13.27-1.39,19.82-2.55a549.54,549.54,0,0,1,80.4-8.3q96.93-2.62,193.88-4.7c13.65-.3,27.32-.07,41,.1,32.32.4,64.63.77,97,1.47,12.3.26,24.57,1.6,36.88,2.1,26.29,1,52.6,1.72,78.89,2.83,37.29,1.58,74.55,4.71,111.84,4.88,71.31.32,142.62-1,213.93-1.62,5.66,0,11.33-.21,17-.59,45.55-3,91.07-6.26,136.63-9.08,30.6-1.89,61.22-3.37,91.85-4.73,41.94-1.86,83.87-4,125.84-5,35-.82,70-.3,105-.13,24,.11,48,.91,72,.9,38.94,0,77.88-.65,116.81-.58,29.32,0,58.64.83,88,1.21,9.33.13,18.67,0,28,0s18.67-.1,28,.15c9.62.25,19.24.87,28.87,1.33,9,8,17.52-3.55,26.47-.69,1.82.58,4,.13,6,.14,28.32.1,56.68-.54,85,.72a133.46,133.46,0,0,0,27.45-1.18c18.37-2.88,37.11-3.54,55.72-4.87,9.25-.66,18.58-.28,27.79-1.23,15.2-1.57,30.32-3.84,45.48-5.81,4.11-.53,7.6.06,11,3.18a12.68,12.68,0,0,0,8.77,3.07c13.88-1.36,27.67-3.71,41.55-5a202.47,202.47,0,0,1,26.87-.62c15.94.62,31.85,1.88,47.78,2.8a44,44,0,0,0,4.94-.52c24.57-1.63,49.12-3.68,73.71-4.55,6.77-.24,13.14-.63,19.47-2.91s9.26-5.31,8.72-9.28c-.58-4.23-4.1-6.09-11.11-5.69-2.66.15-5.29.68-7.94.94-5.62.53-11.25,1.27-16.88,1.42-9.45.25-11.06-1.6-10.16-11.1,2.68-28.19,5.11-56.4,8.27-84.54,1.18-10.51,3.86-20.88,6.31-31.21a163.76,163.76,0,0,1,6.58-22c4.82-12.28,7.59-25.43,17.56-35.48,5.77-5.83,3.77-18.13-2.18-24-11.51,3-33.86,1.56-47.28-6.53a299,299,0,0,1-75.73-64.35,524.64,524.64,0,0,0-47.42-49.88c-25.18-23-54.52-40.47-84.26-57-53.44-29.65-110.38-51.51-167-74-24-9.53-47.46-19.88-66.59-37.58-7.8-7.22-14.5-14.73-24.7-19.6s-18.59-13.86-27.27-21.62c-19.48-17.42-34.82-38.45-50.34-59.27a318.52,318.52,0,0,1-18.06-26.38c-11.51-19.21-23.82-37.74-40.68-52.75-4.49-4-5.57-7.92-1.59-13.4,9.4.67,19.06.81,28.56,2.1q74.75,10.22,149.39,21c25.38,3.66,50.65,8,76,11.67,11.53,1.67,23.17,2.59,34.77,3.73,17.54,1.74,35,4,52.64,4.91,24.94,1.3,50,1.09,74.9,2.46,27.94,1.53,55.81,3.59,83.85,2.54,26.63-1,53.3-.87,79.94-1.41,18.3-.37,36.59-1,54.87-1.63a93.83,93.83,0,0,0,14.9-1.51,21,21,0,0,0,8.91-4c3.88-3.16,2.56-8-2.34-8.82a39.06,39.06,0,0,0-10.9.15c-7.59.9-15.11,2.8-22.71,3.14-35.93,1.62-71.87,3.21-107.83,4.1-22.3.56-44.64-.06-67-.36-3.69,0-8,.81-11.43-4,4.35-3.37,8.63-6.41,12.6-9.82,7.56-6.48,15.63-12.55,22.23-19.92,8.2-9.13,15.05-19.47,22.64-29.16a75.61,75.61,0,0,0,14.83-34.53c4.82-28.22,9.06-56.53,13.71-84.78,1.34-8.2,3-16.37,4.94-24.45,3.93-16.19,8.56-32.21,12.2-48.46,8.94-39.9,22-78.19,42.81-113.6,4.3-7.29,9.27-13.69,16.22-18.63,7.71-5.47,7.77-5.85,15.58-.81,3.94,2.54,6.71,2.07,9.52-1.22,1.51-1.77,3.41-3.33,4.47-5.34,3.22-6.13,8.69-7.6,14.93-8.3a91,91,0,0,0,15.62-3.06c2.15-.64,4.8-2.79,5.43-4.82,3.26-10.48-4.73-19-15.43-16.65a24.67,24.67,0,0,0-9,4c-8.7,6.36-18.19,10.72-28.42,14.16-13.22,4.45-24.95,12.07-31.58,24.71-10.5,20-21.47,40-29.45,61.08s-12.61,43.39-18.56,65.2c-1.84,6.75-2.79,13.75-4.86,20.41a448.2,448.2,0,0,0-18.9,93.8c-.31,3.49,1,7.1,1.27,10.68.19,2.84,1,6.9-.49,8.36-5.52,5.43-6.31,12.37-7.5,19.16a79,79,0,0,1-17.63,37.54c-6.6,7.92-13.18,15.89-20.1,23.53-17.6,19.44-38.47,33.59-64.37,39.83a78.55,78.55,0,0,1-24.68,2c-13.94-1-28-.74-41.93-1.72q-28.39-2-56.72-5.16c-22.84-2.51-45.68-5.1-68.4-8.45-27.67-4.08-55.13-9.58-82.83-13.41-35.29-4.89-70.71-8.87-106.11-13q-59.55-6.88-119.15-13.24c-33.93-3.59-67.89-3.51-101.67,1.47-24,3.54-48,8-71.9,12.24-69.19,12.32-139,15.22-209.11,14.14-10.17-.16-20.64-.23-30.41-4.64a89.19,89.19,0,0,0-15.11-4.72c-5.19-1.3-10.39-2.05-13.27-7.6-2.73-5.26-7.81-6.65-12.85-4.56-6.64,2.76-12.07,2.08-16-2.9-5.56,2.61-10.56,4.42-14.9,7.24a9.76,9.76,0,0,0-3.83,7c0,1.36,3.62,3.8,5.76,4,5.28.44,10.64,0,16-.35,10.18-.62,10.51-.47,12.38,9.47,3.58,19,6.74,38,10.73,56.93,6.33,30,13.24,59.81,19.84,89.71,5.32,24.07,10.27,48.21,15.89,72.21,6.06,25.93,13,51.66,19.06,77.6,11.94,50.88,23.58,101.84,35.25,152.79,1.08,4.74,1.48,9.64,2.32,15.37-5.82,1-10.65,1.84-15.52,2.52s-9.91,1.16-14.87,1.74c-18.52,2.14-37,5.42-55.56,6.21-50.4,2.16-100.61-1.55-150.49-8.6-23.38-3.3-46.53-8.32-69.67-13.11-65.57-13.57-128.16-36-188.74-64.27-30.78-14.39-61.64-28.61-92.46-42.9-25.68-11.9-51.52-23.48-77-35.74-44.75-21.51-91.17-37.36-140.7-43.25-1.8-.22-3.5-1.27-5.21-1.91.07-1.61-.14-2.68.2-3.53,12.61-31.7,27.88-61.91,49.35-88.71C498.87,859.84,533.1,834.39,572.6,816a681.53,681.53,0,0,1,120.45-42.49c49.89-12.67,100.85-18.5,151.86-23.78,64.3-6.66,128.69-12.3,193-19,19.17-2,38.15-5.93,57.19-9.14,3.29-.56,7.11-.78,9.67-5.34-4.58,0-8.16-.27-11.69,0-6,.55-11.89,1.66-17.85,2.19-29.2,2.58-58.41,4.91-87.6,7.58-44.44,4.08-88.89,8.09-133.28,12.65-30.47,3.13-61,6.24-91.23,11-39.16,6.13-77.92,14.43-115.68,26.89C618,786.29,589,796.92,561.18,810.84,514.61,834.2,476.36,867,448,910.92a358,358,0,0,0-30.3,58.45c-3.22,7.86-5.58,16.19-14,21.12-4.2,2.48-7.22,6.94-2.18,12.54,1.44,1.6,1,5.84.14,8.43-7.93,23.68-15.62,47.46-24.41,70.82-9.85,26.17-19.92,52.33-31.49,77.76a739.69,739.69,0,0,1-35.35,68.28,604.5,604.5,0,0,1-63,87.34c-29,33.86-61.48,63.66-99.7,87-12.76,7.8-24.72,16.92-36.9,25.63-3.3,2.35-7.46,4.84-4.52,10.32,7.53,0,12.91-4,18.34-7.76,8.46-5.92,16.77-12.06,25.37-17.75,26.19-17.31,51.16-36.13,73.38-58.38a617.8,617.8,0,0,0,94-121.32c13.79-23.18,27-46.74,37.06-71.86,9.68-24.07,20.14-47.85,29.27-72.13,10-26.48,18.8-53.4,28.17-80.11,2.3-6.58,4-7.94,10.91-7.94,5.65,0,11.43-.19,16.94.85,28.18,5.3,56.4,11,82.73,22.66,52.07,23,103.88,46.7,155.6,70.53,44.77,20.64,89.38,41.61,135.68,58.7,3.23,1.19,6.26,2.93,10.27,4.83-2.49,2.89-3.71,4.9-5.46,6.22-5.84,4.41-11.8,8.66-17.83,12.81-29.63,20.39-59.42,40.54-88.91,61.13-31.14,21.73-62,43.85-93,65.8-25.56,18.12-51.49,35.69-79.91,49.12a867.79,867.79,0,0,1-114.42,44.69q-30.51,9.43-61.62,16.92C356,1417.33,350.67,1418.76,351.22,1427.58ZM2345.33,1471c0-3.59.07-6.53,0-9.46-.24-8.22-1.53-10.1-9.32-11.64a351.55,351.55,0,0,0-71.48-6.79c-24.93.21-49.86,2.34-74.75,4.16-22.57,1.66-45.28,2.84-67.59,6.38-24.29,3.86-48.25,3.84-72.6,1.48a442.68,442.68,0,0,0-57.79-2.14c-20.93.73-41.8,3.57-62.65,5.89-49.78,5.54-98.74,15.2-146.27,31.19-27.13,9.13-54.2,18.55-80.84,29-34.09,13.37-69.39,23.72-102.19,40.34a53.82,53.82,0,0,0-11.35,7.82,21.94,21.94,0,0,1-18.13,5.92c-27.51-2.69-55.08-4.73-82.64-6.91-36.9-2.92-73.86-3.9-110.87-3.87-50.66,0-101.32-.1-151.9,3.12-30.23,1.92-60.4,4.88-90.59,7.44-22.89,1.94-45.79,3.83-68.67,6-38.45,3.63-76.84,8.06-115.34,11-44.86,3.46-89.69,6.81-134.33,12.65-59.54,7.79-119.45,10.76-179.45,11.47a382.36,382.36,0,0,1-46.88-2.36c-33.48-3.75-66.49-10-98.35-21.49-21.28-7.68-42.87-14.51-64.14-22.23-31.57-11.45-62.36-25-95.67-31.43a960.13,960.13,0,0,0-95.83-14.13c-27.5-2.5-55.24-2.77-82.37-8.64-8.43-1.83-17-3.86-24.85-7.3-13.86-6.07-18.56-16.26-15.44-30.67.63-2.89,2.23-5.56,3.1-8.41,1.59-5.2.22-8.94-3.63-9.92-4.58-1.17-5.69,2.57-6.94,5.53-4.18,9.89-3.65,20.12-2,30.47.93,5.91,3.41,10.84,8,14.48,9.43,7.39,18.73,15.35,30.85,17.78,15.32,3.08,30.73,6.75,46.25,7.68,39.94,2.41,79.73,5.58,119.15,12.71,34.2,6.18,67.11,16.37,99.63,28.67,38,14.35,76.53,27.29,115.31,39.3,31.61,9.8,64.59,13.09,97.57,14.58,45.33,2,90.6-.38,135.73-4.34,30.51-2.68,60.81-7.68,91.31-10.65,40.45-3.94,81-6.85,121.49-10.33q47.28-4.08,94.51-8.49c17.9-1.66,35.76-3.67,53.65-5.33q30.86-2.86,61.73-5.37c19.9-1.62,39.8-3.48,59.74-4.39,23-1,46-1.45,69-1.64,35-.29,70-.88,104.91,0,30.61.77,61.18,3.28,91.75,5.26,18.94,1.23,37.86,2.87,56.78,4.43,6.2.51,11.66,1.07,15.78,7.82,4.21,6.91,12.62,6.15,17.06-.58,2.34-3.55,5.08-3.88,8.44-3.66,8.64.57,17.26,1.6,25.91,1.86,47,1.42,93.88,3,140.88,1.08a1302.07,1302.07,0,0,0,172.77-18.62c41.08-7.27,81.41-17.22,119.63-34.42,6.26-2.82,12-7,19.57-3.3,2.05,1,5.21-.55,7.86-.51,6.6.11,13.38-.44,19.76.89,14.66,3,29,7.47,43.69,10.54,11,2.32,22.3,4.59,33.5,4.8q39.43.75,78.9-.68c14.54-.52,29.17-1.36,43.35-6,6.09-2,13.07-1.54,19.66-1.8,7.85-.3,15.83,1.72,23.49-.93.45-11.75-.08-12.87-10.44-14-5.87-.66-11.92-.14-17.84.35-8.57.7-17.11,1.71-25.63,2.85-6.55.87-13,2.82-19.57,3.08-23.28.94-46.59,1-69.86,2.07-33,1.55-64-6.71-94.7-17.35-13.21-4.59-26.59-4.36-40.1-2.3a12.54,12.54,0,0,0-4.51,2.07c-16.51,10.48-35,16.52-53.36,22.26-49.16,15.32-99.8,23.74-150.9,28.85-36.11,3.61-72.4,6.35-108.66,7.27-38.61,1-77.28-.54-115.91-1.19-9.32-.16-18.63-1.09-27.93-1.9-2-.17-3.86-1.37-7.79-2.85,6.17-3.32,10.32-6,14.82-7.88,8.92-3.7,18-7,27.07-10.33,28.5-10.33,57.27-20,85.51-31,50.16-19.54,101.5-34.7,154.71-42.93,26.31-4.07,52.83-6.91,79.32-9.75,23.55-2.51,47.15-3.23,70.83-.82,19.21,1.94,38.51,3,57.79,4.22a58.28,58.28,0,0,0,14.86-.92,464.87,464.87,0,0,1,67.18-8.86c9.64-.49,19.33-.82,28.86-2.2,22.88-3.32,45.85-2.76,68.82-2.48a170.8,170.8,0,0,1,23.84,2.36C2313,1465.32,2328.31,1468.12,2345.33,1471ZM945.68,1716.63l-2.36-.49c.43-6.91,1.72-13.89,1.11-20.7-1.95-21.52-4.61-43-7-64.45a16.68,16.68,0,0,0-1-3.86c-2.52-6.82-6.18-8.43-12.18-4.6-4.45,2.84-8.16,6.81-12.46,9.92-8,5.77-11.09,16.62-21.25,20.26-1.2.43-1.93,3.3-2.18,5.14-4.83,35.13-17.34,67.42-35,98-9.59,16.61-21,31.54-35.08,44.45-10.07,9.22-20.12,18.47-30.39,27.46-32.36,28.31-67.09,52.6-109.35,64.09a27,27,0,0,0-9.65,5c-7,5.68-5.33,15.06,2.68,19.16,7,3.55,13.74,4.38,21.14,1.48a109,109,0,0,1,14.36-4.2c26.85-6.45,54-12,79.51-23,24.16-10.33,48.45-20.51,71.94-32.25,12-6,24.1-13.79,33.19-23.53a169.21,169.21,0,0,0,35.55-57.26c2.15-5.86,4.93-11.49,7.42-17.22l2.05.62c-1.43,5.94-2.61,11.94-4.32,17.79-9.14,31.28-15.53,63.27-26.58,94.11-9.74,27.22-24.28,50.06-47,67.87a177.37,177.37,0,0,0-19.06,17.61c-5.41,5.71-3.08,19.39,3.64,20.24,11.6,1.46,23.17,3.58,34.47-4.45,23.37-16.6,39.18-39.76,55.87-62,10.31-13.76,18.56-29.15,27-44.24,10-18,19.66-36.27,28.7-54.8,9.29-19.06,12-40.18,16-60.65,5.31-27,11.56-54,12.38-81.83a27.82,27.82,0,0,1,2.42-9.65c4-9.7,8.82-19.12,10.85-29.57a5.32,5.32,0,0,1,.45-.89c2.76-6.52,1.79-9.65-5-10.5a95.85,95.85,0,0,0-21.81.11,110.54,110.54,0,0,0-29.75,7.78c-3.75,1.52-6.06,3.08-7.82,6.62-8.45,17-11.43,35.37-14.47,53.75C951,1697.78,950.17,1707.67,945.68,1716.63ZM1121.49,2057c.72-3.88,1.85-7.17,1.87-10.47.11-21-1.25-41.85-2.56-62.79-2.08-33.21-2.09-66.56-2.82-99.86-.22-10-.48-20,.23-30,1.92-26.88,4.31-53.72,6.62-80.57.48-5.63,1.27-11.24,2.13-16.83,4.36-28.37,11.93-55.94,19.92-83.49,5.44-18.77,10-38,5.22-58-2.71-11.37-7.41-13.73-16.83-6.61a15.47,15.47,0,0,0-3.64,3.38,25.73,25.73,0,0,1-14.85,11c-6.92,2-8.8,6.55-7.93,14a47.3,47.3,0,0,1,.35,9.87c-2.81,29.79-5.89,59.55-8.64,89.34-1.25,13.6-1.88,27.25-2.9,40.86-2.59,34.52-5.47,69-7.82,103.54a427.13,427.13,0,0,0,2.64,87.71c3.44,24.68,9,49.08,13.62,73.6C1107.52,2049.15,1111.57,2054.34,1121.49,2057Zm-116.21-138.27,1.11.08c.59,9.31.88,18.65,1.84,27.92,2.1,20.33,6.62,40.14,15.44,58.65,7.11,14.9,15.88,28.51,33.46,33.15,3.51.93,6.71,1.46,8.92-1.9s3.34-7.45-.36-9.86c-5.27-3.42-6.25-8.62-6.92-13.73-2.06-15.82-3.6-31.71-5.27-47.57-.56-5.3-.71-10.63-1.38-15.91-2.75-21.82-5.07-43.7-3.76-65.71,2.25-37.56,4.62-75.15,11.22-112.27,4.3-24.21,9.2-48.33,14.3-72.39a296.51,296.51,0,0,1,8.36-29.75c2.54-7.82,5.71-15.46,9-23,2.31-5.29,1.47-9.64-4.57-12.15-7.92-3.29-16.13-6.6-24.53-7.91-17.49-2.75-20.72.64-22.47,18.21-1.67,16.87-3.67,33.73-6.17,50.49-4.81,32.26-10.3,64.41-15.06,96.68-3.49,23.69-6.68,47.43-9.21,71.24C1007.28,1881.52,1006.56,1900.16,1005.28,1918.74Zm192.6-315.54c-5.25,3.44-9.34,7.94-14.16,9-13.18,2.76-16.47,11.33-18.64,23.23-4.72,25.8-13.73,50.71-15.37,77.21-1.24,20.26-4.49,40.43-5.11,60.69a590.29,590.29,0,0,0,1.42,65.84,419.11,419.11,0,0,0,9.19,61.09c8,34.45,24.79,65.14,45.41,93.72,2,2.79,4.64,5.13,7.42,8.15,3.09-6.47,1.76-11-1.1-15.42q-5.7-8.79-11.39-17.61c-16.62-25.76-28.23-53.67-33.34-83.86-5.79-34.18-8.6-68.68-7-103.41a71.76,71.76,0,0,1,1.26-8.06l2.07,0c.68,1.68,1.79,3.31,2,5,2.36,23.37,9.63,45.51,16.29,67.86a276,276,0,0,0,37.2,78,57.16,57.16,0,0,0,4.16,4.83c4.31-6.35,2.15-11.3-.71-16.52-6.4-11.67-13.09-23.24-18.44-35.39-5.62-12.76-10.11-26-14.56-39.27-11-32.72-18-66.13-15.28-100.93,2-25.11,7.2-49.38,19.73-71.62,1.79-3.18,3-6.68,4.5-10,4.78-10.53,8.55-21.57,18.48-29,4.34-3.25,4.66-8.28,1.26-11.37C1208.34,1610.87,1202.92,1607.12,1197.88,1603.2ZM1154.47,552.83l-1.11-.08c-.65-14.62-.61-29.32-2.09-43.86a578.13,578.13,0,0,0-21.82-108.45c-6.43-21.36-15-41.9-28-60.43-8.62-12.3-21.68-18.31-33.58-26.08-.81-.52-2.06-1.17-2.79-.9-4.51,1.71-9.28,3.16-13.17,5.85-1.13.77-.37,5.63.73,8.08,12.3,27.31,24.23,54.69,34.47,82.93a810.54,810.54,0,0,1,30.76,106.41c8.14,37.91,11.65,76.36,4.78,115.07-1.34,7.52-2.38,15.1-3.61,22.64-1.28,7.83.19,10,7.83,11.92a32.31,32.31,0,0,1,6.51,2.31c4.33,2.14,7.29.72,8.54-3.56a110,110,0,0,0,4-17.47q3.09-25.28,5.35-50.65C1152.61,582,1153.44,567.41,1154.47,552.83Zm16.92,100.31c12.37,2.52,20.31-4.09,27.84-11.42a54.62,54.62,0,0,0,6.45-7.62c6.92-9.77,14.28-19.31,20.4-29.58,9.41-15.78,14-33.17,12.39-51.61-1.85-20.93-5.37-41.6-11.67-61.74A723.38,723.38,0,0,0,1201.1,422c-5.48-12.81-15.16-17.37-27.19-23.52-.56,4.08-1.61,7.18-1.25,10.12.56,4.59,2,9.08,3.19,13.59,4.17,16.12,8,32.24,9.36,49,2,24,.85,47.88-.3,71.86-1.65,34.31-6.28,67.57-24.8,97.59-2.6,4.22-2.95,10.19-3.1,15.39-.06,2.24,2.63,5.36,4.87,6.53,1.18.62,4.38-1.8,6.16-3.42C1169.41,657.87,1170,655.75,1171.39,653.14ZM680.29,1779.46a22.78,22.78,0,0,0,1.64,2.27,35.34,35.34,0,0,1,2.8,2.81c7.62,10.88,18.38,12.15,30.18,9.71,4.86-1,9.58-2.75,14.37-4.12,24.83-7.12,47-20.18,69.79-31.72A103.2,103.2,0,0,0,821,1743c17.12-15.37,29.3-33.81,35.91-56.35,6.33-21.58-2-39.26-24.25-45.66-.73,1.26-2.26,2.66-2.2,4,.59,12.38-5.94,22.35-11.17,32.58-13.38,26.12-34.84,45-57.81,62.26-4.24,3.19-8.52,6.65-13.34,8.66-19.58,8.19-39.35,16-59.14,23.65C685.2,1773.64,681.45,1774.67,680.29,1779.46ZM1296.55,563.33c-1.44-12.54-3.75-25.07-4.08-37.65-.35-13.52-12.34-21.84-13.81-34.62-.13-1.16-2.41-3-3.46-2.89a6.59,6.59,0,0,0-4.55,3,28.2,28.2,0,0,0-2.11,8.65c-1.59,13.89-2.48,27.88-4.62,41.67-3.54,22.89-13.07,44-20.85,65.6-6.77,18.82-17.24,35.33-34.08,47-5.19,3.58-10.75,6.63-16,10.13-3.29,2.2-7.26,4.51-5.22,9.49,1.9,4.62,5.51,6.26,10.57,5a23.48,23.48,0,0,1,7.88-.53c20.72,2.1,37.26-6.92,50.59-21.17,9.24-9.89,16.51-21.74,23.84-33.24C1292.31,605.43,1295.17,584.69,1296.55,563.33ZM1109.38,671.87c.55-2,1.46-3.5,1.33-5-1-11.59-2.08-23.17-3.35-34.73a44.84,44.84,0,0,0-2.15-9.71c-7.58-22-15.31-44-22.93-66-2.72-7.84-4.75-16-8-23.55a230,230,0,0,0-12-23c-9.41-16.44-19.16-32.68-28.55-49.12-7.37-12.92-19.24-17.82-33.13-19.14-9.67-.91-16.44,7.82-12.84,16.88,2.69,6.76,5.72,13.59,9.84,19.53a355.86,355.86,0,0,1,36.74,67.26,202.4,202.4,0,0,0,15.75,31.13c18,28.39,35.45,57.05,49.67,87.57C1101.5,667.9,1103.44,671.14,1109.38,671.87ZM1273,1781.23c4-4.52,2.29-8.2-.45-11.24-7.57-8.39-15.54-16.41-23.14-24.78s-15.24-16.66-22.22-25.49c-7.87-10-9.52-21.74-8-34.09,1.64-13.23,7.82-24.69,14.53-35.82,4.15-6.88,9.38-12.82,17.18-16.17,2.49-1.07,4.5-3.72,6.23-6,2.4-3.21,2.78-6.61-.43-9.87-3-3.11-6.44-3.7-9.87-1.27-8.66,6.14-18.37,11.4-25.42,19.08-12.12,13.18-22.72,27.69-29.54,44.73-8.41,21-7.31,40.91,5,60,3.59,5.6,7.81,10.8,11.22,16.49q16.43,27.39,32.41,55c3.17,5.46,5.79,11.23,8.84,16.76.71,1.27,2.14,2.13,3.33,3.27,6.05-4.8,4.68-9.78,1.45-14.49-16.74-24.46-27.78-52.34-45.8-76-10.27-13.49-12.2-28.48-8.4-44.46.92-3.9,3.32-7.44,5-11.15,2.36,2.31,3.18,4.12,3.16,5.92-.18,13.31,4.64,24.9,12.86,34.92,6.08,7.43,13.16,14,19.81,21C1251.3,1758.62,1261.88,1769.64,1273,1781.23Zm54-1178.45c.15-15-2.7-25.72-8-33.37-1.7-2.42-3.39-5.9-6.83-4.09-1.83,1-3.17,4.13-3.48,6.47-2.11,16.07-3.76,32.21-5.91,48.29-.36,2.74-2,5.52-3.76,7.82-7.13,9.58-14.15,19.3-21.94,28.33a61.56,61.56,0,0,1-15.09,12.61c-12.68,7.52-12.88,7.19-4.87,19.54.54.83,1.06,1.69,1.61,2.52,2.53,3.77,6,5,10.4,4a45.43,45.43,0,0,0,20.36-9.95,78.34,78.34,0,0,1,11.24-8.1c9.62-5.64,16.32-13.45,18.75-24.44C1323.26,635,1328.37,617.75,1327,602.78Zm172.29,1084.39c0,.16,0,.33,0,.5,7.32,0,14.65,0,22,0,4.08,0,7.21-1.48,8-5.9.82-4.59-2.08-6.64-5.77-8.07-7.4-2.85-14.6-6.78-22.27-8.29-11.2-2.2-19.2-8.62-27-16.06-5.53-5.29-11.15-10.52-17.07-15.35a53.36,53.36,0,0,0-12.5-8c-8.5-3.62-17.42-4.34-26.22-.6-3.92,1.66-7.35,4.64-6.7,9,.47,3.18,2.86,6.6,5.38,8.78,2.36,2.05,5.92,3,9.11,3.75,7.74,1.74,14.23,5.65,20,10.82,4.46,4,8.13,9,13,12.41,6.27,4.37,7.59,14.07,16.17,15.33C1483.25,1686.56,1491.3,1686.62,1499.27,1687.17ZM962.65,574.26c1.16,1.75,3,5.66,5.83,8.59,11.5,11.82,25.92,19.64,40.1,27.48,27.46,15.16,49.59,35.47,65,62.93a12.25,12.25,0,0,0,3.74,4.55,7.22,7.22,0,0,0,5.37.81c1.11-.35,2.62-3,2.25-4-2.64-7-2.1-15.38-8.47-20.76a122.78,122.78,0,0,1-23-26.06c-3.3-4.94-7.59-9.25-11.7-13.59-11.89-12.53-23.62-25.23-36-37.25-6.85-6.64-14.31-13-22.53-17.77C971.53,552.52,962.88,558.31,962.65,574.26Zm341.63,1055a59.16,59.16,0,0,1,.33,6.84c-.81,10-2.4,19.88-2.46,29.82-.06,10.27,1.24,20.55,2.09,30.82.28,3.3,1.67,5.83,5.72,5.2,3.34-.51,5.56-2.13,5.59-5.82a21.22,21.22,0,0,0-.08-4c-2.54-13.62-.6-27.18.22-40.78.43-7,1.27-12.95,8.43-16.7,4.09-2.14,3.89-6,.05-8.85-2.3-1.71-5.3-2.57-8.09-3.5-3.14-1-6.52-1.42-9.58-2.63-7.3-2.88-14-1.3-19.68,3.26-8.46,6.78-15.71,15-17.07,26.16-1.27,10.48-2.68,21.46-.91,31.67,3,17.3,8.45,34.18,13,51.21.39,1.48,1.59,2.75,2.73,4.63.38-4.61-.22-8.53,1.17-11.52,2.15-4.65,2-8.86.79-13.52-1.51-5.79-2.12-11.86-4-17.5-5.2-15.34-3-30.45,1.58-45.18C1287,1639.59,1293.05,1632.21,1304.28,1629.26ZM991.51,702.13c.06-.37.12-.74.17-1.1,9.12,1.53,18.18,3.67,27.36,4.41a51.18,51.18,0,0,1,21.69,6.33,36.08,36.08,0,0,0,14.1,4.19c6.57.61,9.42-2.92,9.4-9.64,0-3,0-6,.29-8.9.69-7.8-1.2-11.43-8.47-15-6.84-3.39-13.93-6.31-20.67-9.88-10.22-5.41-21-6.17-32-4.06-6.15,1.18-12,3.74-18,5.58-5.37,1.63-8.58,4.56-8.06,10.78.17,2.1-1.1,4.37-1.89,6.49-2.08,5.51-.47,9.12,5.2,10.17C984.16,702.13,987.87,701.94,991.51,702.13Zm-376,527.33c6.45-4.09,13.28-7.24,18.52-12.1,5-4.62,8.17-11.13,12.37-16.64,6.92-9.06,10.72-21,23.07-25.12.86-.29,2.08-1.25,2.12-1.95.13-2.07.09-5.89-.48-6-8-1.6-10.48-8.52-14.42-14.12-1-1.38-3.19-1.88-5.18-3-6.66,8.46-14.71,15.75-18.8,24.82a64.35,64.35,0,0,1-12,17.72c-2.05,2.21-4.33,6.61-3.44,8.71,3,7.13.21,12.18-3.82,17.38C610.79,1222.6,610.77,1225.84,615.48,1229.46ZM1347.9,1625.6c.84,22.22,3.17,43.59,11.47,63.89,2.67,6.52,3.81,6.59,11.3,1.7-2.59-8.42-5.71-16.84-7.69-25.52-1.91-8.41-4.92-17-2.73-26.32,6.58,1.28,8.16,6.05,10.31,9.93,6.43,11.62,12.52,23.44,18.86,35.12,4.25,7.83,7.33,8.51,16.72,3.38-3.5-5.58-7.15-11-10.43-16.69-6.83-11.8-13.25-23.84-20.25-35.53C1369.36,1625.38,1361,1622.4,1347.9,1625.6Z"/><path d="M351.22,1427.58c-.55-8.82,4.81-10.25,11.8-11.93q31.05-7.49,61.62-16.92A867.79,867.79,0,0,0,539.06,1354c28.42-13.43,54.35-31,79.91-49.12,31-22,61.85-44.07,93-65.8,29.49-20.59,59.28-40.74,88.91-61.13,6-4.15,12-8.4,17.83-12.81,1.75-1.32,3-3.33,5.46-6.22-4-1.9-7-3.64-10.27-4.83-46.3-17.09-90.91-38.06-135.68-58.7-51.72-23.83-103.53-47.49-155.6-70.53-26.33-11.65-54.55-17.36-82.73-22.66-5.51-1-11.29-.85-16.94-.85-6.88,0-8.61,1.36-10.91,7.94-9.37,26.71-18.2,53.63-28.17,80.11-9.13,24.28-19.59,48.06-29.27,72.13-10.11,25.12-23.27,48.68-37.06,71.86a617.8,617.8,0,0,1-94,121.32c-22.22,22.25-47.19,41.07-73.38,58.38-8.6,5.69-16.91,11.83-25.37,17.75-5.43,3.8-10.81,7.79-18.34,7.76-2.94-5.48,1.22-8,4.52-10.32,12.18-8.71,24.14-17.83,36.9-25.63,38.22-23.37,70.66-53.17,99.7-87a604.5,604.5,0,0,0,63-87.34A739.69,739.69,0,0,0,345.84,1160c11.57-25.43,21.64-51.59,31.49-77.76,8.79-23.36,16.48-47.14,24.41-70.82.87-2.59,1.3-6.83-.14-8.43-5-5.6-2-10.06,2.18-12.54,8.37-4.93,10.73-13.26,14-21.12A358,358,0,0,1,448,910.92C476.36,867,514.61,834.2,561.18,810.84,589,796.92,618,786.29,647.43,776.57c37.76-12.46,76.52-20.76,115.68-26.89,30.24-4.73,60.76-7.84,91.23-11,44.39-4.56,88.84-8.57,133.28-12.65,29.19-2.67,58.4-5,87.6-7.58,6-.53,11.88-1.64,17.85-2.19,3.53-.32,7.11,0,11.69,0-2.56,4.56-6.38,4.78-9.67,5.34-19,3.21-38,7.15-57.19,9.14-64.3,6.69-128.69,12.33-193,19-51,5.28-102,11.11-151.86,23.78A681.53,681.53,0,0,0,572.6,816c-39.5,18.41-73.73,43.86-101.15,78.09-21.47,26.8-36.74,57-49.35,88.71-.34.85-.13,1.92-.2,3.53,1.71.64,3.41,1.69,5.21,1.91,49.53,5.89,95.95,21.74,140.7,43.25,25.5,12.26,51.34,23.84,77,35.74,30.82,14.29,61.68,28.51,92.46,42.9,60.58,28.3,123.17,50.7,188.74,64.27,23.14,4.79,46.29,9.81,69.67,13.11,49.88,7,100.09,10.76,150.49,8.6,18.57-.79,37-4.07,55.56-6.21,5-.58,9.93-1.05,14.87-1.74s9.7-1.57,15.52-2.52c-.84-5.73-1.24-10.63-2.32-15.37-11.67-51-23.31-101.91-35.25-152.79-6.08-25.94-13-51.67-19.06-77.6-5.62-24-10.57-48.14-15.89-72.21-6.6-29.9-13.51-59.75-19.84-89.71-4-18.89-7.15-38-10.73-56.93-1.87-9.94-2.2-10.09-12.38-9.47-5.32.33-10.68.79-16,.35-2.14-.17-5.78-2.61-5.76-4a9.76,9.76,0,0,1,3.83-7c4.34-2.82,9.34-4.63,14.9-7.24,3.93,5,9.36,5.66,16,2.9,5-2.09,10.12-.7,12.85,4.56,2.88,5.55,8.08,6.3,13.27,7.6a89.19,89.19,0,0,1,15.11,4.72c9.77,4.41,20.24,4.48,30.41,4.64,70.07,1.08,139.92-1.82,209.11-14.14,23.94-4.26,47.85-8.7,71.9-12.24,33.78-5,67.74-5.06,101.67-1.47q59.61,6.31,119.15,13.24c35.4,4.09,70.82,8.07,106.11,13,27.7,3.83,55.16,9.33,82.83,13.41,22.72,3.35,45.56,5.94,68.4,8.45q28.3,3.11,56.72,5.16c14,1,28,.68,41.93,1.72a78.55,78.55,0,0,0,24.68-2c25.9-6.24,46.77-20.39,64.37-39.83,6.92-7.64,13.5-15.61,20.1-23.53a79,79,0,0,0,17.63-37.54c1.19-6.79,2-13.73,7.5-19.16,1.49-1.46.68-5.52.49-8.36-.23-3.58-1.58-7.19-1.27-10.68a448.2,448.2,0,0,1,18.9-93.8c2.07-6.66,3-13.66,4.86-20.41,5.95-21.81,10.58-44.15,18.56-65.2s18.95-41.06,29.45-61.08c6.63-12.64,18.36-20.26,31.58-24.71,10.23-3.44,19.72-7.8,28.42-14.16a24.67,24.67,0,0,1,9-4c10.7-2.38,18.69,6.17,15.43,16.65-.63,2-3.28,4.18-5.43,4.82a91,91,0,0,1-15.62,3.06c-6.24.7-11.71,2.17-14.93,8.3-1.06,2-3,3.57-4.47,5.34-2.81,3.29-5.58,3.76-9.52,1.22-7.81-5-7.87-4.66-15.58.81-7,4.94-11.92,11.34-16.22,18.63-20.83,35.41-33.87,73.7-42.81,113.6-3.64,16.25-8.27,32.27-12.2,48.46-2,8.08-3.6,16.25-4.94,24.45-4.65,28.25-8.89,56.56-13.71,84.78a75.61,75.61,0,0,1-14.83,34.53c-7.59,9.69-14.44,20-22.64,29.16-6.6,7.37-14.67,13.44-22.23,19.92-4,3.41-8.25,6.45-12.6,9.82,3.41,4.79,7.74,3.93,11.43,4,22.32.3,44.66.92,67,.36,36-.89,71.9-2.48,107.83-4.1,7.6-.34,15.12-2.24,22.71-3.14a39.06,39.06,0,0,1,10.9-.15c4.9.82,6.22,5.66,2.34,8.82a21,21,0,0,1-8.91,4,93.83,93.83,0,0,1-14.9,1.51c-18.28.65-36.57,1.26-54.87,1.63-26.64.54-53.31.41-79.94,1.41-28,1-55.91-1-83.85-2.54-24.94-1.37-50-1.16-74.9-2.46-17.59-.92-35.1-3.17-52.64-4.91-11.6-1.14-23.24-2.06-34.77-3.73-25.37-3.68-50.64-8-76-11.67q-74.65-10.74-149.39-21c-9.5-1.29-19.16-1.43-28.56-2.1-4,5.48-2.9,9.4,1.59,13.4,16.86,15,29.17,33.54,40.68,52.75a318.52,318.52,0,0,0,18.06,26.38c15.52,20.82,30.86,41.85,50.34,59.27,8.68,7.76,17.06,16.74,27.27,21.62s16.9,12.38,24.7,19.6c19.13,17.7,42.63,28,66.59,37.58,56.62,22.52,113.56,44.38,167,74,29.74,16.5,59.08,33.93,84.26,57a524.64,524.64,0,0,1,47.42,49.88A299,299,0,0,0,2288.2,1186c13.42,8.09,35.77,9.51,47.28,6.53,5.95,5.88,7.95,18.18,2.18,24-10,10.05-12.74,23.2-17.56,35.48a163.76,163.76,0,0,0-6.58,22c-2.45,10.33-5.13,20.7-6.31,31.21-3.16,28.14-5.59,56.35-8.27,84.54-.9,9.5.71,11.35,10.16,11.1,5.63-.15,11.26-.89,16.88-1.42,2.65-.26,5.28-.79,7.94-.94,7-.4,10.53,1.46,11.11,5.69.54,4-2.44,7-8.72,9.28s-12.7,2.67-19.47,2.91c-24.59.87-49.14,2.92-73.71,4.55a44,44,0,0,1-4.94.52c-15.93-.92-31.84-2.18-47.78-2.8a202.47,202.47,0,0,0-26.87.62c-13.88,1.32-27.67,3.67-41.55,5a12.68,12.68,0,0,1-8.77-3.07c-3.39-3.12-6.88-3.71-11-3.18-15.16,2-30.28,4.24-45.48,5.81-9.21.95-18.54.57-27.79,1.23-18.61,1.33-37.35,2-55.72,4.87a133.46,133.46,0,0,1-27.45,1.18c-28.27-1.26-56.63-.62-85-.72-2,0-4.15.44-6-.14-8.95-2.86-17.47,8.7-26.47.69-9.63-.46-19.25-1.08-28.87-1.33-9.33-.25-18.67-.13-28-.15s-18.67.11-28,0c-29.32-.38-58.64-1.16-88-1.21-38.93-.07-77.87.58-116.81.58-24,0-48-.79-72-.9-35-.17-70-.69-105,.13-42,1-83.9,3.09-125.84,5-30.63,1.36-61.25,2.84-91.85,4.73-45.56,2.82-91.08,6.07-136.63,9.08-5.65.38-11.32.54-17,.59-71.31.65-142.62,1.94-213.93,1.62-37.29-.17-74.55-3.3-111.84-4.88-26.29-1.11-52.6-1.78-78.89-2.83-12.31-.5-24.58-1.84-36.88-2.1-32.32-.7-64.63-1.07-97-1.47-13.66-.17-27.33-.4-41-.1q-96.94,2.18-193.88,4.7a549.54,549.54,0,0,0-80.4,8.3c-6.55,1.16-13.2,1.78-19.82,2.55-3.66.43-7.38.76-9.84-3.66,1.45-5.29,6-6.28,10.6-7.06A805.21,805.21,0,0,1,250,1431.74c32,0,63.92-2,95.88-3.12A44.15,44.15,0,0,0,351.22,1427.58Zm1295.41-9.91c.33-.89.66-1.77,1-2.66-3.26-3.18-7.12-5.44-7.37-11a159.51,159.51,0,0,0-4.06-28.57c-7.62-32.77-15.77-65.41-23.62-98.12-6.92-28.81-13.09-57.82-20.76-86.42a464,464,0,0,1-14-78.56c-2.28-25.19-4.92-50.35-7.49-75.52-.83-8.18-1.77-9.19-9.94-8.87-14.64.58-29.31,1-43.87,2.52-42.72,4.36-85.33,9.74-128.09,13.66-28.5,2.62-57.16,4.49-85.76,4.75-29.93.26-57.37,9.81-85.94,18.18a91.65,91.65,0,0,0,1.13,9.29c7.65,33.43,15.32,66.84,23.22,100.21a13.43,13.43,0,0,0,4.54,7.12c4.63,3.49,4.58,7.43,3.23,12.38-.92,3.38-1.73,7.27-1,10.55,6.53,27.87,13.5,55.64,20.19,83.48,4,16.82,7.74,33.72,11.72,50.56s8,33.61,12.23,50.36c1.13,4.5,3.43,8.71,4.55,13.22,1,4,2.47,8.58-3.31,11.08-1.17-.85-2.54-1.4-3.21-2.41-3.14-4.73-6.32-9-12-11.43-3.74-1.6-3.45-5.8-3.33-9.68.25-7.9,1-16-.42-23.69-4-21.61-8.72-43.09-13.65-64.5-6.41-27.86-13.31-55.61-20-83.4-.86-3.56-1.66-7.14-2.49-10.7-2.27-9.69-3.54-10.65-13.72-10.07-3.32.19-6.63.63-9.94,1-23.52,2.33-47,5.47-70.55,6.81-35.65,2-71.23-.74-106.77-3.82a768.69,768.69,0,0,1-97.67-15.18c-30.55-6.67-60.7-15.11-91.06-22.65-2.46-.62-5.65-1.24-7.66-.22-8.24,4.2-16.31,8.78-24.14,13.69-11.56,7.25-22.89,14.86-34.26,22.4q-21.21,14.08-42.32,28.33c-21.79,14.74-43.64,29.38-65.23,44.42-16.39,11.42-32.42,23.35-48.56,35.12-3,2.16-5.93,4.45-5.55,8.83.82,9.57.84,19.28,2.54,28.68,4.52,24.88,1.62,48.35-11,70.47-2.08,3.63-3.42,7.68-5.49,12.42,3.88.67,6.74,1.45,9.63,1.62,12.63.73,25.28,1.4,37.92,1.88,57.27,2.18,114.52,5.54,171.81,6.07,59.94.55,119.92-1.31,179.87-2.77,26.63-.65,53.23-2.79,79.82-4.48s53.13-4,79.73-5.44c34.26-1.87,68.55-3.55,102.84-4.6,53.61-1.65,107.24-3.42,160.86-3.8,69.31-.51,138.63.31,207.94.49A82,82,0,0,0,1646.63,1417.67Zm310.62-446.29c-2-1.42-3.17-2.65-4.6-3.23-12.05-4.85-24.1-9.67-36.22-14.33-6.07-2.34-12.12-6-18.66-.58-1.27,1.06-3.87.74-5.85.71-28.87-.43-57,4.39-84.75,11.85-19.27,5.19-39,9.49-57.47,16.72a831.49,831.49,0,0,0-127.26,62.23c-11.34,6.84-23.32,13.11-32,23.52-1.94,2.32-4,5.8-3.74,8.52,2.42,24.16,3.9,48.54,8.46,72.32,8.22,42.81,18.05,85.31,27.82,127.8,9.18,39.9,19.14,79.62,28.81,119.4,2.11,8.68,3.9,9.46,11.63,5.47a35.74,35.74,0,0,0,4.28-2.58c16.38-11.46,33.7-21.25,51.32-30.7a513.55,513.55,0,0,1,72-32c16.89-6,34.16-10.88,51.31-16.12,7-2.16,8.06-3,7.73-10.48s-1-14.59-1.71-21.87c-2.09-21.24-3.36-42.56-.84-63.77,2.8-23.52,9.17-46.28,16.6-68.79,12.73-38.55,25-77.22,43-113.81C1919.72,1015.81,1934,991.26,1957.25,971.38Zm-743.79,79.76a8.63,8.63,0,0,0,2.54.39c23.33-5.32,46.34-12.22,70.36-14.2,3.49-.29,6.43-1.62,7.32-5.6.73-3.26,2.64-5.28,6.25-5.26,5.82,0,9.83-3.51,13.92-7,15.54-13.29,28.65-28.8,40.64-45.21,14.71-20.12,29.09-40.53,40.35-62.86,3.13-6.21,4.94-13.06,7.81-19.4,8.23-18.15,17.08-36,24.95-54.34,7.35-17.1,14.42-34.39,20.42-52,7.72-22.65,14.36-45.67,21.19-68.61,1.17-3.91,1-8.22,1.52-12.86-5.18,0-9.18-.53-13,.09-13.74,2.25-27.39,5.15-41.15,7.31-22,3.45-44.06,6.79-66.16,9.66a572.31,572.31,0,0,1-76.66,4.68c-20.63-.11-41.32.62-61.87,2.33-16.59,1.39-32.43.42-48-5.64-7.08-2.75-14.61-4-22.19-2.39C1139.12,738.18,1200.57,1021.05,1213.46,1051.14Zm939.48,23.16c-4.43-3.48-8-6.48-11.75-9.19-34.7-25-71.9-45.63-110.36-64.16-6.11-3-11.59-5.26-16.88,1.2a6.15,6.15,0,0,1-3.6,1.54c-6.36,1-11.13,4.73-14.72,9.59-8.68,11.76-18.25,23.13-25.12,35.92-15.46,28.75-28.23,58.74-35.2,90.89-1.76,8.13-4.25,16.1-6,24.25-4.28,20.53-9.57,41.21-7.37,62.24,2.58,24.73,7.25,49.24,11,73.85a17.16,17.16,0,0,0,.48,1.94c2.76,10,3.82,11,14.52,11.44a160.26,160.26,0,0,1,49.7,10.09c21.8,8.13,44.42,14.32,64.31,27a7.42,7.42,0,0,0,.89.45c7.86,3.64,9.18,3.41,14.11-3.47,3.49-4.87,6.77-9.89,10-15,18.11-28.83,34.41-58.51,42.89-91.83,4.76-18.67,10.15-37.22,14-56.09,5.72-28,11.29-56.16,10.42-85-.09-3,.46-6.5-.94-8.75C2150,1085.76,2150.66,1080.51,2152.94,1074.3ZM1531.66,699.11c5.67,7.13,2.35,13.56.95,20-2.64,12-5.48,24-7.87,36.09-5.24,26.45-10.2,53-15.37,79.42-1.65,8.49-2.85,17.16-5.53,25.33-9.11,27.81-18.61,55.5-28.29,83.11-9.27,26.41-24.8,49.24-41.76,71.18-3,3.82-5.84,7.7-10.24,13.51,6.29,0,10.14.35,13.9,0,29.8-3.2,59.58-6.62,89.38-9.77,5.16-.55,8.21-2.55,10.67-7.39a56.13,56.13,0,0,1,11.11-15.23c19.16-18.08,38.82-35.6,61.81-48.84a413.23,413.23,0,0,1,80.41-35c35-11.21,70.25-20.84,106.93-24.49a64.66,64.66,0,0,0,7.36-1.72c-2.43-2.56-3.9-4.23-5.5-5.76-7.72-7.35-15.94-14.23-23.12-22.07-25.51-27.85-46.45-59.16-67.24-90.56-13-19.6-26.52-38.51-50.67-45.8-3.24-1-6.51-3.38-5.37-7.22.52-1.78,3.84-2.81,6-4a13.17,13.17,0,0,1,3.31-.83C1619.48,700,1576.22,697.5,1531.66,699.11Zm-6.74.62c-1.42-.81-2.3-1.77-3.11-1.71-11.58.8-23.19,1.47-34.7,2.88-2.25.28-4.66,3.28-6,5.6-1.47,2.49-1.77,5.66-2.63,8.52-6.76,22.63-12.79,45.52-20.56,67.8-5.89,16.93-14,33.09-21.13,49.59-7.5,17.4-14.86,34.85-22.5,52.19a696.67,696.67,0,0,1-38.56,74.34,314.3,314.3,0,0,1-53.85,67.7c-2.21,2.11-4.08,4.58-6.12,6.88l1.09,2.1c3.84.23,7.7.84,11.52.62,20.94-1.15,41.86-2.73,62.81-3.69,9.06-.42,16-4.06,21.34-11,8.5-11.09,17.43-21.91,25.19-33.51,8.3-12.4,16.52-25.06,22.89-38.5a516.24,516.24,0,0,0,40.07-119.93c4-19.88,9.52-39.45,13.46-59.33,4-20.19,7-40.59,10.24-60.92A90,90,0,0,0,1524.92,699.73Zm352.67,239.73c-.71-1.58-.81-2.38-1.26-2.71-14.51-10.53-29-21.11-43.68-31.4a19,19,0,0,0-9.13-3.42c-16.61-1-33.23-1.8-49.79,1.16A597,597,0,0,0,1682,927c-40.64,14.18-78.67,32.63-110.18,62.67-8.5,8.09-16.77,16.43-26.87,26.36,5.85-.34,9.42-.24,12.87-.82,5.58-.93,11.09-2.26,16.61-3.49,7.64-1.7,11.46,1.34,11.07,9.11-.11,2.3-1.17,4.54-1.34,6.84-.59,7.88-1.13,15.79,2.52,23.08,1.52,0,2.72.37,3.44-.06,4.85-2.89,9.62-5.92,14.38-9,32.91-21,68-37.92,103.07-54.87,41.41-20,85.24-32,130.09-40.78C1850.7,943.49,1863.85,941.71,1877.59,939.46Zm43.68,372.72c.48-2.43,1-3.43.83-4.34-2.84-20.08-5.36-40.21-8.73-60.19-3.32-19.6-3.8-39.27-.25-58.63,7.08-38.65,16.3-76.61,32.81-112.76,14.11-30.91,30.15-60,54.8-83.76.6-.58.63-1.76,1.06-3.1-7.79-6.28-17.47-8-26.36-11.4-1.34-.51-3.26.1-4.81.55-13,3.8-22.85,12.07-30.58,22.89-16,22.37-27.42,47.22-37.18,72.69-10,26.08-18.73,52.68-27.12,79.34-5.89,18.71-11,37.73-15.15,56.9-7.26,33.44-2.82,66.91,1.66,100.27.74,5.53,4.79,5.47,9,5.22,10.63-.63,21.27-1,31.88-1.74C1909.08,1313.72,1915,1312.87,1921.27,1312.18Zm161.6,48.53c10.09,7.86,18.3,14.58,26.85,20.83,9.89,7.22,13.8,6.65,22.15-2.25.22-.24.42-.51.63-.77,14.68-17.6,30.54-34.34,39.9-55.77,2.39-5.46,5.32-10.7,8.2-15.93a180.19,180.19,0,0,0,21.8-70c2.35-24.15,4.08-48.38,7-72.46,1.44-11.92-1.47-23.1-3-34.55a10.3,10.3,0,0,0-2.84-5.14q-16-17.12-32.34-34c-1.36-1.41-3.73-1.84-7.11-3.41,2.92,50-9.44,96.21-20.77,142.68C2131.76,1277.42,2108.87,1319.56,2082.87,1360.71Zm45.52,43.22.78,2.77,22.58-1.46c10.28-.66,20.56-1.81,30.84-1.83,12.64,0,25.28,1.1,37.93,1.31,9,.15,9.83-.48,10.7-9.29q2.24-22.32,3.51-44.72c2.6-44.74,17.64-85.81,36.76-125.69,4.25-8.86,8.86-17.54,13.17-26q-30-24.33-60.23-48.73c-.58-.47-1.87-.06-3.45-.06a29.07,29.07,0,0,0-1.51,5.31c-2.35,26.5-2.6,53.18-7.51,79.44-2.51,13.4-3,27.44-7.36,40.18-11.89,34.82-28.66,67.34-51.19,96.66C2145.14,1382.54,2136.73,1393.21,2128.39,1403.93Zm-1746.1,20.69.51,2.74c3.78.23,7.55.64,11.32.67,59.25.48,118.49.85,177.73,1.43,5.56,0,9.48-1.63,12.55-6.3,5.82-8.87,12.65-17.15,17.8-26.37,10.43-18.67,14.51-38.42,7.14-59.44-.55-1.58.42-3.65.4-5.49,0-2.14.39-5.24-.78-6.17s-4.21-.19-6.24.42c-1.5.46-2.66,2-4.06,2.84-21.29,13.62-42.26,27.76-65.47,38.11-27.35,12.2-54.67,24.39-83.19,33.7-20.23,6.59-40.35,13.52-60.48,20.39A66.48,66.48,0,0,0,382.29,1424.62Zm1916.6-217.49c-3,3.92-4.93,8.25-8.27,10.48-5.36,3.56-8.47,8.33-10.93,13.85-17.14,38.42-32.68,77.36-35,120-.81,14.92-.29,29.9-.33,44.86,0,4.78,2.28,7.67,7.28,7.46,9.3-.39,18.59-1,27.88-1.54,4.25-.25,6.74-2.45,7.38-6.71.34-2.3.82-4.58,1.06-6.9,2.94-28.1,5.65-56.24,8.87-84.31,1.1-9.54,2.54-19.23,5.43-28.33,6.15-19.33,13.4-38.3,20.09-57.45.92-2.63,1.19-5.48,1.93-9Zm-348,120a225.13,225.13,0,0,0-52.84-.39c-1.66,4.37-2.48,7.93-4.23,11-14.19,24.42-28.58,48.72-42.82,73.12-1.1,1.89-1.46,4.21-2.52,7.41,3.47.65,6.27,1.57,9.08,1.64,12,.31,24,.11,35.92.61,7.66.32,12.58-2.62,15.65-9.62,4.4-10,8.92-20,13.85-29.79C1931.76,1363.66,1940.91,1346.38,1950.87,1327.18Zm-29,92.71c9.37.16,17.21.2,25,.44,5.33.17,8.39-2.2,10.79-7,7.84-15.78,16.27-31.27,24.24-47,4.62-9.09,8.79-18.4,13.14-27.55-5.92-5.27-12.08-6.43-18.26-7.72-4.56-1-7.73.45-10.11,4.36-1.55,2.53-2.84,6-5.18,7.13-7,3.32-9.92,9.68-12.92,15.9-8.09,16.75-15.94,33.62-23.71,50.53C1923.56,1411.82,1923.14,1415.07,1921.84,1419.89ZM1839,1337.1l-1.32-2.34a111.53,111.53,0,0,0-36.57,11c-1.66.83-2.09,3.92-3.42,5.71-3.71,5-6.81,10.89-11.63,14.43a67.34,67.34,0,0,0-14.73,14.6c-4.71,6.45-9.76,12.67-14.06,19.39-3.46,5.41-7.81,10.67-7.9,19.05,12.31,1,24.15,1.37,36,0,2-.23,4.18-3,5.54-5.13,4.14-6.42,7.77-13.18,11.89-19.62,10.59-16.53,21.36-32.94,32-49.44C1836.31,1342.29,1837.57,1339.65,1839,1337.1Zm133.29,79.62c2.73.92,4,1.73,5.16,1.67,11-.61,21.91-1.34,32.86-2.1,3.87-.27,5.45-3.07,7.06-6.19,4.55-8.87,9.59-17.49,14-26.39a168.55,168.55,0,0,0,8.28-19.25c2.8-7.92,1.59-10.46-6.38-14a169,169,0,0,0-16.9-6.07c-7.3-2.34-8-2-11.6,5-7.57,14.81-15.16,29.61-22.49,44.54C1978.82,1401.09,1975.9,1408.45,1972.27,1416.72Zm-165.24.22c14.59,6.17,21.61,4,28.39-7.69,11.35-19.52,22.93-38.91,34.25-58.45a148.86,148.86,0,0,0,10.87-22c-10-1.45-9.56-1.28-12.55,5.62-2.34,5.38-5.18,11.58-11.73,12.36-5.52.65-8.21,3.67-10.79,7.61-7.47,11.39-15.16,22.64-22.32,34.22C1817.46,1397.78,1812.42,1407.39,1807,1416.94Zm-139.45-2c.22.82.45,1.64.67,2.46a43.06,43.06,0,0,0,6.48,1.18c7.64.25,15.31,0,22.93.5,5.74.4,9.25-1.94,12.32-6.5,6.67-9.92,13.75-19.57,20.55-29.41a54.12,54.12,0,0,0,3.37-6.62l-1.6-1.65C1709.63,1386.4,1686.85,1397.76,1667.58,1414.89Zm445.85-8.89c-7.68-11-23.21-22.9-32.8-25.69-7.6,8-12.3,17.62-15.09,29.78C2081.9,1411.61,2096.94,1408.27,2113.43,1406Zm-82.44,5.11c7.41,3.27,13.93,3.65,17-1.43a237.71,237.71,0,0,0,16.51-33.78c.93-2.3-2.17-7.92-4.9-9.63-4.12-2.57-6.22,2-7.94,5.19-3.3,6.14-6.43,12.37-9.65,18.55C2038.53,1396.71,2035,1403.4,2031,1411.11Zm-306.1,5.63c4.94,2.83,6.64,1,8.74-2.4q9.7-15.61,20.3-30.66c4.4-6.24,9.66-11.88,14.32-18,1.24-1.6,1.71-3.8,2.7-6.14-12.74.75-13.25,1.24-16.7,11.73a27.63,27.63,0,0,1-3.9,6.84c-7.6,10.91-15.32,21.74-22.89,32.67C1726.38,1412.38,1725.91,1414.35,1724.89,1416.74Z"/><path d="M2345.33,1471c-17-2.91-32.36-5.71-47.76-8.08a170.8,170.8,0,0,0-23.84-2.36c-23-.28-45.94-.84-68.82,2.48-9.53,1.38-19.22,1.71-28.86,2.2a464.87,464.87,0,0,0-67.18,8.86,58.28,58.28,0,0,1-14.86.92c-19.28-1.18-38.58-2.28-57.79-4.22-23.68-2.41-47.28-1.69-70.83.82-26.49,2.84-53,5.68-79.32,9.75-53.21,8.23-104.55,23.39-154.71,42.93-28.24,11-57,20.63-85.51,31-9.08,3.29-18.15,6.63-27.07,10.33-4.5,1.86-8.65,4.56-14.82,7.88,3.93,1.48,5.82,2.68,7.79,2.85,9.3.81,18.61,1.74,27.93,1.9,38.63.65,77.3,2.17,115.91,1.19,36.26-.92,72.55-3.66,108.66-7.27,51.1-5.11,101.74-13.53,150.9-28.85,18.4-5.74,36.85-11.78,53.36-22.26A12.54,12.54,0,0,1,2073,1519c13.51-2.06,26.89-2.29,40.1,2.3,30.66,10.64,61.72,18.9,94.7,17.35,23.27-1.09,46.58-1.13,69.86-2.07,6.56-.26,13-2.21,19.57-3.08,8.52-1.14,17.06-2.15,25.63-2.85,5.92-.49,12-1,17.84-.35,10.36,1.16,10.89,2.28,10.44,14-7.66,2.65-15.64.63-23.49.93-6.59.26-13.57-.22-19.66,1.8-14.18,4.69-28.81,5.53-43.35,6q-39.42,1.39-78.9.68c-11.2-.21-22.47-2.48-33.5-4.8-14.66-3.07-29-7.49-43.69-10.54-6.38-1.33-13.16-.78-19.76-.89-2.65,0-5.81,1.51-7.86.51-7.55-3.66-13.31.48-19.57,3.3-38.22,17.2-78.55,27.15-119.63,34.42A1302.07,1302.07,0,0,1,1769,1594.4c-47,2-93.93.34-140.88-1.08-8.65-.26-17.27-1.29-25.91-1.86-3.36-.22-6.1.11-8.44,3.66-4.44,6.73-12.85,7.49-17.06.58-4.12-6.75-9.58-7.31-15.78-7.82-18.92-1.56-37.84-3.2-56.78-4.43-30.57-2-61.14-4.49-91.75-5.26-35-.89-69.94-.3-104.91,0-23,.19-46,.59-69,1.64-19.94.91-39.84,2.77-59.74,4.39q-30.88,2.51-61.73,5.37c-17.89,1.66-35.75,3.67-53.65,5.33q-47.24,4.38-94.51,8.49c-40.49,3.48-81,6.39-121.49,10.33-30.5,3-60.8,8-91.31,10.65-45.13,4-90.4,6.38-135.73,4.34-33-1.49-66-4.78-97.57-14.58-38.78-12-77.34-25-115.31-39.3-32.52-12.3-65.43-22.49-99.63-28.67-39.42-7.13-79.21-10.3-119.15-12.71-15.52-.93-30.93-4.6-46.25-7.68-12.12-2.43-21.42-10.39-30.85-17.78-4.63-3.64-7.11-8.57-8-14.48-1.64-10.35-2.17-20.58,2-30.47,1.25-3,2.36-6.7,6.94-5.53,3.85,1,5.22,4.72,3.63,9.92-.87,2.85-2.47,5.52-3.1,8.41-3.12,14.41,1.58,24.6,15.44,30.67,7.85,3.44,16.42,5.47,24.85,7.3,27.13,5.87,54.87,6.14,82.37,8.64a960.13,960.13,0,0,1,95.83,14.13c33.31,6.47,64.1,20,95.67,31.43,21.27,7.72,42.86,14.55,64.14,22.23,31.86,11.5,64.87,17.74,98.35,21.49a382.36,382.36,0,0,0,46.88,2.36c60-.71,119.91-3.68,179.45-11.47,44.64-5.84,89.47-9.19,134.33-12.65,38.5-3,76.89-7.4,115.34-11,22.88-2.16,45.78-4,68.67-6,30.19-2.56,60.36-5.52,90.59-7.44,50.58-3.22,101.24-3.09,151.9-3.12,37,0,74,.95,110.87,3.87,27.56,2.18,55.13,4.22,82.64,6.91a21.94,21.94,0,0,0,18.13-5.92,53.82,53.82,0,0,1,11.35-7.82c32.8-16.62,68.1-27,102.19-40.34,26.64-10.45,53.71-19.87,80.84-29,47.53-16,96.49-25.65,146.27-31.19,20.85-2.32,41.72-5.16,62.65-5.89a442.68,442.68,0,0,1,57.79,2.14c24.35,2.36,48.31,2.38,72.6-1.48,22.31-3.54,45-4.72,67.59-6.38,24.89-1.82,49.82-4,74.75-4.16a351.55,351.55,0,0,1,71.48,6.79c7.79,1.54,9.08,3.42,9.32,11.64C2345.4,1464.5,2345.33,1467.44,2345.33,1471Z"/><path d="M945.68,1716.63c4.49-9,5.36-18.85,7-28.61,3-18.38,6-36.78,14.47-53.75,1.76-3.54,4.07-5.1,7.82-6.62a110.54,110.54,0,0,1,29.75-7.78,95.85,95.85,0,0,1,21.81-.11c6.79.85,7.76,4,5,10.5a5.32,5.32,0,0,0-.45.89c-2,10.45-6.8,19.87-10.85,29.57a27.82,27.82,0,0,0-2.42,9.65c-.82,27.78-7.07,54.79-12.38,81.83-4,20.47-6.71,41.59-16,60.65-9,18.53-18.67,36.79-28.7,54.8-8.41,15.09-16.66,30.48-27,44.24-16.69,22.28-32.5,45.44-55.87,62-11.3,8-22.87,5.91-34.47,4.45-6.72-.85-9-14.53-3.64-20.24a177.37,177.37,0,0,1,19.06-17.61c22.73-17.81,37.27-40.65,47-67.87,11-30.84,17.44-62.83,26.58-94.11,1.71-5.85,2.89-11.85,4.32-17.79l-2.05-.62c-2.49,5.73-5.27,11.36-7.42,17.22a169.21,169.21,0,0,1-35.55,57.26c-9.09,9.74-21.15,17.5-33.19,23.53-23.49,11.74-47.78,21.92-71.94,32.25-25.53,10.91-52.66,16.51-79.51,23a109,109,0,0,0-14.36,4.2c-7.4,2.9-14.19,2.07-21.14-1.48-8-4.1-9.65-13.48-2.68-19.16a27,27,0,0,1,9.65-5c42.26-11.49,77-35.78,109.35-64.09,10.27-9,20.32-18.24,30.39-27.46,14.1-12.91,25.49-27.84,35.08-44.45,17.67-30.62,30.18-62.91,35-98,.25-1.84,1-4.71,2.18-5.14,10.16-3.64,13.26-14.49,21.25-20.26,4.3-3.11,8-7.08,12.46-9.92,6-3.83,9.66-2.22,12.18,4.6a16.68,16.68,0,0,1,1,3.86c2.42,21.48,5.08,42.93,7,64.45.61,6.81-.68,13.79-1.11,20.7Zm-16.87-78.94a36.13,36.13,0,0,0-15.6,15.18c-3,5.46-5.94,11.63-10.6,15.33-4.43,3.51-5.83,7.25-7.36,12.14-6,19.29-9,39.63-19.43,57.47-3.86,6.58-6.86,13.68-10.18,20.58a164.19,164.19,0,0,1-29.39,42.51c-22.82,23.91-48.06,45-74.49,64.81-15.29,11.45-31.25,21.44-49.18,28.18-2.38.9-4.49,2.5-6.72,3.78a230.15,230.15,0,0,0,40.71-7.79A577.37,577.37,0,0,0,852,1847.5c11.46-6,23.31-12.13,31.32-22.71,9.82-13,19.8-26,27.67-40.16,11.38-20.45,17.55-43,21.84-66,4.58-24.6.8-49-1.19-73.52C931.49,1642.94,930.1,1640.91,928.81,1637.69Zm-73.74,324.73c6.76,3.82,8,4.17,13.24.31,6.68-4.91,13.63-9.82,19.13-15.93,11.78-13.1,22.79-26.91,33.94-40.57a135.31,135.31,0,0,0,11.09-15.35c10.62-17.68,21.13-35.44,31.31-53.37,10.86-19.14,20.44-38.9,25.21-60.58,4-18.18,8.29-36.31,11.53-54.62,3.18-18,5.1-36.21,7.77-54.31,1.16-7.85,2.73-15.64,4.26-23.43.68-3.42,1.73-6.77,3-11.43-12.21.21-22.54,2.54-32.88,4.54-1.37.26-2.82,1.81-3.58,3.14-4.13,7.16-8.5,14-10.21,22.53-6.27,31-12.53,61.94-19.91,92.65-8.78,36.54-18.13,73-28.34,109.14-6.32,22.42-14.45,44.55-30,62.55-8.64,10-19,18.54-28.62,27.76C859.71,1957.65,857.52,1959.94,855.07,1962.42Z"/><path d="M1121.49,2057c-9.92-2.67-14-7.86-15.39-15.37-4.62-24.52-10.18-48.92-13.62-73.6a427.13,427.13,0,0,1-2.64-87.71c2.35-34.53,5.23-69,7.82-103.54,1-13.61,1.65-27.26,2.9-40.86,2.75-29.79,5.83-59.55,8.64-89.34a47.3,47.3,0,0,0-.35-9.87c-.87-7.44,1-12,7.93-14a25.73,25.73,0,0,0,14.85-11,15.47,15.47,0,0,1,3.64-3.38c9.42-7.12,14.12-4.76,16.83,6.61,4.77,20.07.22,39.28-5.22,58-8,27.55-15.56,55.12-19.92,83.49-.86,5.59-1.65,11.2-2.13,16.83-2.31,26.85-4.7,53.69-6.62,80.57-.71,9.95-.45,20-.23,30,.73,33.3.74,66.65,2.82,99.86,1.31,20.94,2.67,41.82,2.56,62.79C1123.34,2049.84,1122.21,2053.13,1121.49,2057Zm20.29-427.65c-2.86,1-4.9,1.17-6.33,2.21-9.36,6.8-14.79,15.84-15.94,27.57-2.38,24.49-5.13,48.95-7.62,73.43q-1.5,14.87-2.5,29.8c-.12,1.82,1,3.72,1.57,5.59l2.32-.14c.57-3.44,1.16-6.88,1.73-10.32,1.75-10.47,2.91-21.08,5.38-31.38,5.58-23.26,11.95-46.33,17.7-69.55C1140.2,1648,1142,1639.29,1141.78,1629.36Zm-35.5,354.93,2.12-.19c.32-2.06,1-4.13.91-6.18-.85-33.27-2.06-66.54-2.61-99.81-.24-14.6.65-29.23,1.39-43.83.48-9.62,1.58-19.21,2.45-28.81.82-8.94,1.77-17.88,2.51-26.83.11-1.4-.58-2.86-.89-4.29-2.41,1.69-3.68,3.58-3.89,5.58-1.06,9.93-1.91,19.88-2.71,29.83-1.45,18.24-3,36.47-4.17,54.73a593.45,593.45,0,0,0,2.48,108.68C1104.32,1976.92,1105.46,1980.59,1106.28,1984.29Z"/><path d="M1005.28,1918.74c1.28-18.58,2-37.22,4-55.73,2.53-23.81,5.72-47.55,9.21-71.24,4.76-32.27,10.25-64.42,15.06-96.68,2.5-16.76,4.5-33.62,6.17-50.49,1.75-17.57,5-21,22.47-18.21,8.4,1.31,16.61,4.62,24.53,7.91,6,2.51,6.88,6.86,4.57,12.15-3.3,7.54-6.47,15.18-9,23a296.51,296.51,0,0,0-8.36,29.75c-5.1,24.06-10,48.18-14.3,72.39-6.6,37.12-9,74.71-11.22,112.27-1.31,22,1,43.89,3.76,65.71.67,5.28.82,10.61,1.38,15.91,1.67,15.86,3.21,31.75,5.27,47.57.67,5.11,1.65,10.31,6.92,13.73,3.7,2.41,2.48,6.62.36,9.86s-5.41,2.83-8.92,1.9c-17.58-4.64-26.35-18.25-33.46-33.15-8.82-18.51-13.34-38.32-15.44-58.65-1-9.27-1.25-18.61-1.84-27.92Zm61.82-277.36c-11.21-.15-14.28,2-16.28,12.81-1.82,9.81-3.23,19.71-4.62,29.6-3.46,24.71-6,49.59-10.38,74.12-7.45,41.32-13.92,82.75-17.2,124.6-3,38.74-2.57,77.29,11.9,114.24a161.33,161.33,0,0,0,10.16,20.44c.76,1.33,4,2.07,5.76,1.72,1.09-.22,2.22-3,2.32-4.75.14-2.26-.7-4.58-1.13-6.87-1.08-5.88-2.62-11.72-3.17-17.65-2.17-23.2-4.08-46.42-6-69.64-.49-6-.6-12-.65-18-.32-41.72,3.92-83.1,9.39-124.38,3.84-29.05,8.52-57.94,16.3-86.24,3.52-12.82,7.14-25.61,10.47-38.47C1076.24,1644.41,1074.32,1641.48,1067.1,1641.38Z"/><path d="M1197.88,1603.2c5,3.92,10.46,7.67,15.3,12.06,3.4,3.09,3.08,8.12-1.26,11.37-9.93,7.43-13.7,18.47-18.48,29-1.51,3.34-2.71,6.84-4.5,10-12.53,22.24-17.77,46.51-19.73,71.62-2.72,34.8,4.27,68.21,15.28,100.93,4.45,13.23,8.94,26.51,14.56,39.27,5.35,12.15,12,23.72,18.44,35.39,2.86,5.22,5,10.17.71,16.52a57.16,57.16,0,0,1-4.16-4.83,276,276,0,0,1-37.2-78c-6.66-22.35-13.93-44.49-16.29-67.86-.17-1.73-1.28-3.36-2-5l-2.07,0a71.76,71.76,0,0,0-1.26,8.06c-1.65,34.73,1.16,69.23,7,103.41,5.11,30.19,16.72,58.1,33.34,83.86q5.68,8.82,11.39,17.61c2.86,4.4,4.19,8.95,1.1,15.42-2.78-3-5.41-5.36-7.42-8.15-20.62-28.58-37.36-59.27-45.41-93.72a419.11,419.11,0,0,1-9.19-61.09,590.29,590.29,0,0,1-1.42-65.84c.62-20.26,3.87-40.43,5.11-60.69,1.64-26.5,10.65-51.41,15.37-77.21,2.17-11.9,5.46-20.47,18.64-23.23C1188.54,1611.14,1192.63,1606.64,1197.88,1603.2Zm-23.5,56.85c7.89-9.63,11.19-21.31,16.5-33.57C1178.93,1631.22,1177.11,1636.3,1174.38,1660.05Z"/><path d="M1154.47,552.83c-1,14.58-1.86,29.18-3.17,43.73q-2.28,25.37-5.35,50.65a110,110,0,0,1-4,17.47c-1.25,4.28-4.21,5.7-8.54,3.56a32.31,32.31,0,0,0-6.51-2.31c-7.64-1.88-9.11-4.09-7.83-11.92,1.23-7.54,2.27-15.12,3.61-22.64,6.87-38.71,3.36-77.16-4.78-115.07a810.54,810.54,0,0,0-30.76-106.41c-10.24-28.24-22.17-55.62-34.47-82.93-1.1-2.45-1.86-7.31-.73-8.08,3.89-2.69,8.66-4.14,13.17-5.85.73-.27,2,.38,2.79.9,11.9,7.77,25,13.78,33.58,26.08,13,18.53,21.59,39.07,28,60.43a578.13,578.13,0,0,1,21.82,108.45c1.48,14.54,1.44,29.24,2.09,43.86Zm-17.63,28.28c7.7-4.25,5.91-10.63,5.87-15.64-.13-15.62-.86-31.25-1.77-46.84-1.66-28.64-7-56.73-12.8-84.76-4-18.93-8.72-37.47-16.94-55.13-5.92-12.72-12-25.27-20.74-36.26-6.74-8.48-16.06-12.93-28.32-16.5,8,18.06,15.57,33.81,22.09,50,6.6,16.33,12.45,33,18.17,49.64,5.82,17,11.79,33.93,16.38,51.25,4.5,17,7.34,34.45,10.92,51.69C1133.23,545.56,1132.9,563.21,1136.84,581.11Z"/><path d="M1171.39,653.14c-1.4,2.61-2,4.73-3.35,6-1.78,1.62-5,4-6.16,3.42-2.24-1.17-4.93-4.29-4.87-6.53.15-5.2.5-11.17,3.1-15.39,18.52-30,23.15-63.28,24.8-97.59,1.15-24,2.31-47.84.3-71.86-1.4-16.74-5.19-32.86-9.36-49-1.17-4.51-2.63-9-3.19-13.59-.36-2.94.69-6,1.25-10.12,12,6.15,21.71,10.71,27.19,23.52a723.38,723.38,0,0,1,25.7,69.17c6.3,20.14,9.82,40.81,11.67,61.74,1.62,18.44-3,35.83-12.39,51.61-6.12,10.27-13.48,19.81-20.4,29.58a54.62,54.62,0,0,1-6.45,7.62C1191.7,649.05,1183.76,655.66,1171.39,653.14Zm21.55-219.23c-.77.57-1.54,1.14-2.32,1.7.37,2.9.39,5.89,1.15,8.68,5.24,19.12,6.53,38.7,6.18,58.34-.44,24.26-1.06,48.56-2.88,72.74-1.48,19.58-5.51,38.83-14.35,56.71-1,1.93-1.32,4.14-2.63,8.41,4.35-1.76,7.29-2.3,9.38-3.94a51.28,51.28,0,0,0,10-9.7c10.15-14,19.58-28.23,24.59-45.18,3.66-12.37,5.43-24.67,4.27-37.39-.72-7.95-2-15.83-3-23.76-3.45-28.78-15.28-54.93-25.63-81.54C1196.93,437,1194.57,435.59,1192.94,433.91Z"/><path d="M680.29,1779.46c1.16-4.79,4.91-5.82,8.73-7.3,19.79-7.7,39.56-15.46,59.14-23.65,4.82-2,9.1-5.47,13.34-8.66,23-17.3,44.43-36.14,57.81-62.26,5.23-10.23,11.76-20.2,11.17-32.58-.06-1.32,1.47-2.72,2.2-4,22.27,6.4,30.58,24.08,24.25,45.66-6.61,22.54-18.79,41-35.91,56.35a103.2,103.2,0,0,1-21.95,15.37c-22.8,11.54-45,24.6-69.79,31.72-4.79,1.37-9.51,3.11-14.37,4.12-11.8,2.44-22.56,1.17-30.18-9.71a35.34,35.34,0,0,0-2.8-2.81A22.78,22.78,0,0,1,680.29,1779.46ZM707,1779l.06,1.68c2.26-.2,4.54-.23,6.76-.64s4.49-1.2,6.72-1.83c22.85-6.53,43.84-17.5,65-28,9.71-4.83,19.39-10.55,27.46-17.7,8.62-7.63,15.77-17.09,22.74-26.38s12.41-19.73,13.57-31.71c.62-6.42.39-12.6-7.29-17a106.93,106.93,0,0,0-5.4,9.25c-3.31,7.24-5.83,14.88-9.57,21.88-10.61,19.9-25.24,36.5-42.3,51.25-14.84,12.83-31.07,22.57-49.93,28.27C725.24,1770.92,716.21,1775.33,707,1779Z"/><path d="M1296.55,563.33c-1.38,21.36-4.24,42.1-15.9,60.42-7.33,11.5-14.6,23.35-23.84,33.24-13.33,14.25-29.87,23.27-50.59,21.17a23.48,23.48,0,0,0-7.88.53c-5.06,1.25-8.67-.39-10.57-5-2-5,1.93-7.29,5.22-9.49,5.25-3.5,10.81-6.55,16-10.13,16.84-11.64,27.31-28.15,34.08-47,7.78-21.59,17.31-42.71,20.85-65.6,2.14-13.79,3-27.78,4.62-41.67a28.2,28.2,0,0,1,2.11-8.65,6.59,6.59,0,0,1,4.55-3c1-.15,3.33,1.73,3.46,2.89,1.47,12.78,13.46,21.1,13.81,34.62C1292.8,538.26,1295.11,550.79,1296.55,563.33Zm-76,100.33,1.08,2.46c3.22-1.11,6.78-1.69,9.62-3.43a92.27,92.27,0,0,0,24.4-21.52c14.16-17.77,24.89-36.62,28.54-59.31,2.72-16.91,3.43-33.71.15-50.57-.54-2.8-.95-6-5.49-6.14-.58,2.07-1.46,3.9-1.57,5.78-1.83,32.18-14.25,61.33-26.28,90.49-6.24,15.11-14.41,29.27-28.11,39.27A14.15,14.15,0,0,0,1220.54,663.66Z"/><path d="M1109.38,671.87c-5.94-.73-7.88-4-9.65-7.77-14.22-30.52-31.67-59.18-49.67-87.57a202.4,202.4,0,0,1-15.75-31.13,355.86,355.86,0,0,0-36.74-67.26c-4.12-5.94-7.15-12.77-9.84-19.53-3.6-9.06,3.17-17.79,12.84-16.88,13.89,1.32,25.76,6.22,33.13,19.14,9.39,16.44,19.14,32.68,28.55,49.12a230,230,0,0,1,12,23c3.27,7.59,5.3,15.71,8,23.55,7.62,22,15.35,44,22.93,66a44.84,44.84,0,0,1,2.15,9.71c1.27,11.56,2.36,23.14,3.35,34.73C1110.84,668.37,1109.93,669.91,1109.38,671.87Zm-15.32-41.27,2.53-1.93c-1-3-2-6.12-3.1-9.14-6.6-18.12-14-36-19.64-54.39-4.69-15.32-9.55-30.4-17.39-44.42-6.15-11-11.91-22.26-18.32-33.13-4.71-8-9.92-15.73-15.41-23.22-4-5.41-9-9.88-16.29-10.47-6.4-.52-9.15,2.54-6.66,8.33,2.61,6.06,6.16,11.72,9.49,17.44,8,13.77,17.57,26.84,24,41.31,16,36.32,36.6,70.07,56.07,104.46C1090.42,627.42,1092.45,628.89,1094.06,630.6Z"/><path d="M1273,1781.23c-11.11-11.59-21.69-22.61-32.25-33.65-6.65-6.95-13.73-13.56-19.81-21-8.22-10-13-21.61-12.86-34.92,0-1.8-.8-3.61-3.16-5.92-1.72,3.71-4.12,7.25-5,11.15-3.8,16-1.87,31,8.4,44.46,18,23.65,29.06,51.53,45.8,76,3.23,4.71,4.6,9.69-1.45,14.49-1.19-1.14-2.62-2-3.33-3.27-3-5.53-5.67-11.3-8.84-16.76q-16-27.6-32.41-55c-3.41-5.69-7.63-10.89-11.22-16.49-12.26-19.1-13.36-39-5-60,6.82-17,17.42-31.55,29.54-44.73,7-7.68,16.76-12.94,25.42-19.08,3.43-2.43,6.82-1.84,9.87,1.27,3.21,3.26,2.83,6.66.43,9.87-1.73,2.31-3.74,5-6.23,6-7.8,3.35-13,9.29-17.18,16.17-6.71,11.13-12.89,22.59-14.53,35.82-1.53,12.35.12,24.14,8,34.09,7,8.83,14.65,17.14,22.22,25.49s15.57,16.39,23.14,24.78C1275.28,1773,1277,1776.71,1273,1781.23Z"/><path d="M1327,602.78c1.39,15-3.72,32.22-7.56,49.63-2.43,11-9.13,18.8-18.75,24.44a78.34,78.34,0,0,0-11.24,8.1,45.43,45.43,0,0,1-20.36,9.95c-4.37,1-7.87-.23-10.4-4-.55-.83-1.07-1.69-1.61-2.52-8-12.35-7.81-12,4.87-19.54A61.56,61.56,0,0,0,1277,656.23c7.79-9,14.81-18.75,21.94-28.33,1.71-2.3,3.4-5.08,3.76-7.82,2.15-16.08,3.8-32.22,5.91-48.29.31-2.34,1.65-5.51,3.48-6.47,3.44-1.81,5.13,1.67,6.83,4.09C1324.28,577.06,1327.13,587.74,1327,602.78Zm-20.74,43.74c-6.67,2.63-17.57,16.83-19,24.75C1301,669.25,1309.26,658.45,1306.24,646.52Z"/><path d="M1499.27,1687.17c-8-.55-16-.61-23.91-1.77-8.58-1.26-9.9-11-16.17-15.33-4.84-3.38-8.51-8.41-13-12.41-5.76-5.17-12.25-9.08-20-10.82-3.19-.71-6.75-1.7-9.11-3.75-2.52-2.18-4.91-5.6-5.38-8.78-.65-4.31,2.78-7.29,6.7-9,8.8-3.74,17.72-3,26.22.6a53.36,53.36,0,0,1,12.5,8c5.92,4.83,11.54,10.06,17.07,15.35,7.78,7.44,15.78,13.86,27,16.06,7.67,1.51,14.87,5.44,22.27,8.29,3.69,1.43,6.59,3.48,5.77,8.07-.79,4.42-3.92,5.88-8,5.9-7.32,0-14.65,0-22,0C1499.28,1687.5,1499.27,1687.33,1499.27,1687.17Zm-.33-5.26c-6-4.39-11.21-5.71-17.44-5.43C1485.86,1684.68,1487.84,1685.36,1498.94,1681.91Z"/><path d="M962.65,574.26c.23-16,8.88-21.74,20.6-15,8.22,4.72,15.68,11.13,22.53,17.77,12.4,12,24.13,24.72,36,37.25,4.11,4.34,8.4,8.65,11.7,13.59a122.78,122.78,0,0,0,23,26.06c6.37,5.38,5.83,13.77,8.47,20.76.37,1-1.14,3.6-2.25,4a7.22,7.22,0,0,1-5.37-.81,12.25,12.25,0,0,1-3.74-4.55c-15.41-27.46-37.54-47.77-65-62.93-14.18-7.84-28.6-15.66-40.1-27.48C965.64,579.92,963.81,576,962.65,574.26Zm15.19-2.53c.38,9,6.31,13.13,11.56,17.39,20.89,17,25.77,19.67,32.8,19.31C1015.18,597.94,986.4,573.64,977.84,571.73Z"/><path d="M1304.28,1629.26c-11.23,3-17.33,10.33-20.22,19.62-4.58,14.73-6.78,29.84-1.58,45.18,1.91,5.64,2.52,11.71,4,17.5,1.21,4.66,1.36,8.87-.79,13.52-1.39,3-.79,6.91-1.17,11.52-1.14-1.88-2.34-3.15-2.73-4.63-4.53-17-10-33.91-13-51.21-1.77-10.21-.36-21.19.91-31.67,1.36-11.15,8.61-19.38,17.07-26.16,5.7-4.56,12.38-6.14,19.68-3.26,3.06,1.21,6.44,1.59,9.58,2.63,2.79.93,5.79,1.79,8.09,3.5,3.84,2.85,4,6.71-.05,8.85-7.16,3.75-8,9.72-8.43,16.7-.82,13.6-2.76,27.16-.22,40.78a21.22,21.22,0,0,1,.08,4c0,3.69-2.25,5.31-5.59,5.82-4,.63-5.44-1.9-5.72-5.2-.85-10.27-2.15-20.55-2.09-30.82.06-9.94,1.65-19.87,2.46-29.82A59.16,59.16,0,0,0,1304.28,1629.26Z"/><path d="M991.51,702.13c-3.64-.19-7.35,0-10.91-.65-5.67-1.05-7.28-4.66-5.2-10.17.79-2.12,2.06-4.39,1.89-6.49-.52-6.22,2.69-9.15,8.06-10.78,6-1.84,11.9-4.4,18-5.58,11-2.11,21.76-1.35,32,4.06,6.74,3.57,13.83,6.49,20.67,9.88,7.27,3.59,9.16,7.22,8.47,15-.25,3-.3,5.93-.29,8.9,0,6.72-2.83,10.25-9.4,9.64a36.08,36.08,0,0,1-14.1-4.19,51.18,51.18,0,0,0-21.69-6.33c-9.18-.74-18.24-2.88-27.36-4.41C991.63,701.39,991.57,701.76,991.51,702.13Zm0-15.71c1.36,1.54,1.71,2.34,2.22,2.46q25.63,5.88,51.29,11.62c.32.07.66.09,1,.13,3.89.5,6.52-1.48,7.89-4.76,1.61-3.85-1.46-5.35-4.26-6.55-6.71-2.87-13.27-6.46-20.28-8.2C1016.59,677.94,1003.93,678.8,991.55,686.42Z"/><path d="M615.48,1229.46c-4.71-3.62-4.69-6.86-2.05-10.27,4-5.2,6.84-10.25,3.82-17.38-.89-2.1,1.39-6.5,3.44-8.71a64.35,64.35,0,0,0,12-17.72c4.09-9.07,12.14-16.36,18.8-24.82,2,1.09,4.21,1.59,5.18,3,3.94,5.6,6.39,12.52,14.42,14.12.57.11.61,3.93.48,6,0,.7-1.26,1.66-2.12,1.95-12.35,4.12-16.15,16.06-23.07,25.12-4.2,5.51-7.39,12-12.37,16.64C628.76,1222.22,621.93,1225.37,615.48,1229.46Z"/><path d="M1347.9,1625.6c13.13-3.2,21.46-.22,27.56,10,7,11.69,13.42,23.73,20.25,35.53,3.28,5.66,6.93,11.11,10.43,16.69-9.39,5.13-12.47,4.45-16.72-3.38-6.34-11.68-12.43-23.5-18.86-35.12-2.15-3.88-3.73-8.65-10.31-9.93-2.19,9.37.82,17.91,2.73,26.32,2,8.68,5.1,17.1,7.69,25.52-7.49,4.89-8.63,4.82-11.3-1.7C1351.07,1669.19,1348.74,1647.82,1347.9,1625.6Z"/><path class="cls-1" d="M1646.63,1417.67a82,82,0,0,1-9.33,1c-69.31-.18-138.63-1-207.94-.49-53.62.38-107.25,2.15-160.86,3.8-34.29,1-68.58,2.73-102.84,4.6-26.6,1.45-53.15,3.75-79.73,5.44s-53.19,3.83-79.82,4.48c-60,1.46-119.93,3.32-179.87,2.77-57.29-.53-114.54-3.89-171.81-6.07-12.64-.48-25.29-1.15-37.92-1.88-2.89-.17-5.75-1-9.63-1.62,2.07-4.74,3.41-8.79,5.49-12.42,12.62-22.12,15.52-45.59,11-70.47-1.7-9.4-1.72-19.11-2.54-28.68-.38-4.38,2.6-6.67,5.55-8.83,16.14-11.77,32.17-23.7,48.56-35.12,21.59-15,43.44-29.68,65.23-44.42q21.09-14.28,42.32-28.33c11.37-7.54,22.7-15.15,34.26-22.4,7.83-4.91,15.9-9.49,24.14-13.69,2-1,5.2-.4,7.66.22,30.36,7.54,60.51,16,91.06,22.65a768.69,768.69,0,0,0,97.67,15.18c35.54,3.08,71.12,5.85,106.77,3.82,23.57-1.34,47-4.48,70.55-6.81,3.31-.33,6.62-.77,9.94-1,10.18-.58,11.45.38,13.72,10.07.83,3.56,1.63,7.14,2.49,10.7,6.67,27.79,13.57,55.54,20,83.4,4.93,21.41,9.66,42.89,13.65,64.5,1.42,7.67.67,15.79.42,23.69-.12,3.88-.41,8.08,3.33,9.68,5.64,2.4,8.82,6.7,12,11.43.67,1,2,1.56,3.21,2.41,5.78-2.5,4.28-7.13,3.31-11.08-1.12-4.51-3.42-8.72-4.55-13.22-4.23-16.75-8.25-33.55-12.23-50.36s-7.68-33.74-11.72-50.56c-6.69-27.84-13.66-55.61-20.19-83.48-.77-3.28,0-7.17,1-10.55,1.35-5,1.4-8.89-3.23-12.38a13.43,13.43,0,0,1-4.54-7.12c-7.9-33.37-15.57-66.78-23.22-100.21a91.65,91.65,0,0,1-1.13-9.29c28.57-8.37,56-17.92,85.94-18.18,28.6-.26,57.26-2.13,85.76-4.75,42.76-3.92,85.37-9.3,128.09-13.66,14.56-1.49,29.23-1.94,43.87-2.52,8.17-.32,9.11.69,9.94,8.87,2.57,25.17,5.21,50.33,7.49,75.52a464,464,0,0,0,14,78.56c7.67,28.6,13.84,57.61,20.76,86.42,7.85,32.71,16,65.35,23.62,98.12a159.51,159.51,0,0,1,4.06,28.57c.25,5.56,4.11,7.82,7.37,11C1647.29,1415.9,1647,1416.78,1646.63,1417.67Zm-404-14.83c6.12-5.53,7.72-12.88,8.49-20.56C1244.08,1387.33,1242,1394.49,1242.66,1402.84Z"/><path class="cls-1" d="M1957.25,971.38c-23.29,19.88-37.53,44.43-50.23,70.25-18,36.59-30.27,75.26-43,113.81-7.43,22.51-13.8,45.27-16.6,68.79-2.52,21.21-1.25,42.53.84,63.77.72,7.28,1.4,14.57,1.71,21.87s-.7,8.32-7.73,10.48c-17.15,5.24-34.42,10.15-51.31,16.12a513.55,513.55,0,0,0-72,32c-17.62,9.45-34.94,19.24-51.32,30.7a35.74,35.74,0,0,1-4.28,2.58c-7.73,4-9.52,3.21-11.63-5.47-9.67-39.78-19.63-79.5-28.81-119.4-9.77-42.49-19.6-85-27.82-127.8-4.56-23.78-6-48.16-8.46-72.32-.27-2.72,1.8-6.2,3.74-8.52,8.73-10.41,20.71-16.68,32-23.52a831.49,831.49,0,0,1,127.26-62.23c18.51-7.23,38.2-11.53,57.47-16.72,27.73-7.46,55.88-12.28,84.75-11.85,2,0,4.58.35,5.85-.71,6.54-5.44,12.59-1.76,18.66.58,12.12,4.66,24.17,9.48,36.22,14.33C1954.08,968.73,1955.26,970,1957.25,971.38Z"/><path class="cls-1" d="M1213.46,1051.14c-12.89-30.09-74.34-313-71.79-330.92,7.58-1.63,15.11-.36,22.19,2.39,15.6,6.06,31.44,7,48,5.64,20.55-1.71,41.24-2.44,61.87-2.33a572.31,572.31,0,0,0,76.66-4.68c22.1-2.87,44.14-6.21,66.16-9.66,13.76-2.16,27.41-5.06,41.15-7.31,3.82-.62,7.82-.09,13-.09-.51,4.64-.35,9-1.52,12.86-6.83,22.94-13.47,46-21.19,68.61-6,17.61-13.07,34.9-20.42,52-7.87,18.31-16.72,36.19-24.95,54.34-2.87,6.34-4.68,13.19-7.81,19.4-11.26,22.33-25.64,42.74-40.35,62.86-12,16.41-25.1,31.92-40.64,45.21-4.09,3.5-8.1,7-13.92,7-3.61,0-5.52,2-6.25,5.26-.89,4-3.83,5.31-7.32,5.6-24,2-47,8.88-70.36,14.2A8.63,8.63,0,0,1,1213.46,1051.14Z"/><path class="cls-1" d="M2152.94,1074.3c-2.28,6.21-3,11.46.41,16.9,1.4,2.25.85,5.79.94,8.75.87,28.87-4.7,57-10.42,85-3.85,18.87-9.24,37.42-14,56.09-8.48,33.32-24.78,63-42.89,91.83-3.19,5.07-6.47,10.09-10,15-4.93,6.88-6.25,7.11-14.11,3.47a7.42,7.42,0,0,1-.89-.45c-19.89-12.66-42.51-18.85-64.31-27a160.26,160.26,0,0,0-49.7-10.09c-10.7-.45-11.76-1.46-14.52-11.44a17.16,17.16,0,0,1-.48-1.94c-3.77-24.61-8.44-49.12-11-73.85-2.2-21,3.09-41.71,7.37-62.24,1.7-8.15,4.19-16.12,6-24.25,7-32.15,19.74-62.14,35.2-90.89,6.87-12.79,16.44-24.16,25.12-35.92,3.59-4.86,8.36-8.57,14.72-9.59a6.15,6.15,0,0,0,3.6-1.54c5.29-6.46,10.77-4.15,16.88-1.2,38.46,18.53,75.66,39.19,110.36,64.16C2145,1067.82,2148.51,1070.82,2152.94,1074.3Z"/><path class="cls-1" d="M1531.66,699.11c44.56-1.61,87.82.87,130.87,9.84a13.17,13.17,0,0,0-3.31.83c-2.16,1.17-5.48,2.2-6,4-1.14,3.84,2.13,6.24,5.37,7.22,24.15,7.29,37.69,26.2,50.67,45.8,20.79,31.4,41.73,62.71,67.24,90.56,7.18,7.84,15.4,14.72,23.12,22.07,1.6,1.53,3.07,3.2,5.5,5.76a64.66,64.66,0,0,1-7.36,1.72c-36.68,3.65-72,13.28-106.93,24.49a413.23,413.23,0,0,0-80.41,35c-23,13.24-42.65,30.76-61.81,48.84a56.13,56.13,0,0,0-11.11,15.23c-2.46,4.84-5.51,6.84-10.67,7.39-29.8,3.15-59.58,6.57-89.38,9.77-3.76.4-7.61,0-13.9,0,4.4-5.81,7.29-9.69,10.24-13.51,17-21.94,32.49-44.77,41.76-71.18,9.68-27.61,19.18-55.3,28.29-83.11,2.68-8.17,3.88-16.84,5.53-25.33,5.17-26.47,10.13-53,15.37-79.42,2.39-12.08,5.23-24.06,7.87-36.09C1534,712.67,1537.33,706.24,1531.66,699.11Z"/><path class="cls-1" d="M1524.92,699.73a90,90,0,0,1-.58,9.59c-3.29,20.33-6.24,40.73-10.24,60.92-3.94,19.88-9.47,39.45-13.46,59.33a516.24,516.24,0,0,1-40.07,119.93c-6.37,13.44-14.59,26.1-22.89,38.5-7.76,11.6-16.69,22.42-25.19,33.51-5.36,7-12.28,10.62-21.34,11-21,1-41.87,2.54-62.81,3.69-3.82.22-7.68-.39-11.52-.62l-1.09-2.1c2-2.3,3.91-4.77,6.12-6.88a314.3,314.3,0,0,0,53.85-67.7,696.67,696.67,0,0,0,38.56-74.34c7.64-17.34,15-34.79,22.5-52.19,7.12-16.5,15.24-32.66,21.13-49.59,7.77-22.28,13.8-45.17,20.56-67.8.86-2.86,1.16-6,2.63-8.52,1.37-2.32,3.78-5.32,6-5.6,11.51-1.41,23.12-2.08,34.7-2.88C1522.62,698,1523.5,698.92,1524.92,699.73Z"/><path class="cls-1" d="M1877.59,939.46c-13.74,2.25-26.89,4-39.89,6.59-44.85,8.8-88.68,20.78-130.09,40.78-35.09,16.95-70.16,33.87-103.07,54.87-4.76,3-9.53,6.07-14.38,9-.72.43-1.92.06-3.44.06-3.65-7.29-3.11-15.2-2.52-23.08.17-2.3,1.23-4.54,1.34-6.84.39-7.77-3.43-10.81-11.07-9.11-5.52,1.23-11,2.56-16.61,3.49-3.45.58-7,.48-12.87.82,10.1-9.93,18.37-18.27,26.87-26.36,31.51-30,69.54-48.49,110.18-62.67a597,597,0,0,1,91.69-23.88c16.56-3,33.18-2.2,49.79-1.16a19,19,0,0,1,9.13,3.42c14.68,10.29,29.17,20.87,43.68,31.4C1876.78,937.08,1876.88,937.88,1877.59,939.46Z"/><path class="cls-1" d="M1921.27,1312.18c-6.31.69-12.19,1.54-18.11,1.94-10.61.71-21.25,1.11-31.88,1.74-4.24.25-8.29.31-9-5.22-4.48-33.36-8.92-66.83-1.66-100.27,4.16-19.17,9.26-38.19,15.15-56.9,8.39-26.66,17.13-53.26,27.12-79.34,9.76-25.47,21.2-50.32,37.18-72.69,7.73-10.82,17.54-19.09,30.58-22.89,1.55-.45,3.47-1.06,4.81-.55,8.89,3.4,18.57,5.12,26.36,11.4-.43,1.34-.46,2.52-1.06,3.1-24.65,23.76-40.69,52.85-54.8,83.76-16.51,36.15-25.73,74.11-32.81,112.76-3.55,19.36-3.07,39,.25,58.63,3.37,20,5.89,40.11,8.73,60.19C1922.22,1308.75,1921.75,1309.75,1921.27,1312.18Z"/><path class="cls-1" d="M2082.87,1360.71c26-41.15,48.89-83.29,60.44-130.73,11.33-46.47,23.69-92.69,20.77-142.68,3.38,1.57,5.75,2,7.11,3.41q16.36,16.8,32.34,34a10.3,10.3,0,0,1,2.84,5.14c1.56,11.45,4.47,22.63,3,34.55-2.92,24.08-4.65,48.31-7,72.46a180.19,180.19,0,0,1-21.8,70c-2.88,5.23-5.81,10.47-8.2,15.93-9.36,21.43-25.22,38.17-39.9,55.77-.21.26-.41.53-.63.77-8.35,8.9-12.26,9.47-22.15,2.25C2101.17,1375.29,2093,1368.57,2082.87,1360.71Z"/><path class="cls-1" d="M2128.39,1403.93c8.34-10.72,16.75-21.39,25-32.16,22.53-29.32,39.3-61.84,51.19-96.66,4.35-12.74,4.85-26.78,7.36-40.18,4.91-26.26,5.16-52.94,7.51-79.44a29.07,29.07,0,0,1,1.51-5.31c1.58,0,2.87-.41,3.45.06q30.22,24.32,60.23,48.73c-4.31,8.51-8.92,17.19-13.17,26-19.12,39.88-34.16,81-36.76,125.69q-1.3,22.39-3.51,44.72c-.87,8.81-1.69,9.44-10.7,9.29-12.65-.21-25.29-1.34-37.93-1.31-10.28,0-20.56,1.17-30.84,1.83l-22.58,1.46Z"/><path class="cls-1" d="M382.29,1424.62a66.48,66.48,0,0,1,7.23-3.47c20.13-6.87,40.25-13.8,60.48-20.39,28.52-9.31,55.84-21.5,83.19-33.7,23.21-10.35,44.18-24.49,65.47-38.11,1.4-.89,2.56-2.38,4.06-2.84,2-.61,5-1.4,6.24-.42s.75,4,.78,6.17c0,1.84-1,3.91-.4,5.49,7.37,21,3.29,40.77-7.14,59.44-5.15,9.22-12,17.5-17.8,26.37-3.07,4.67-7,6.35-12.55,6.3-59.24-.58-118.48-1-177.73-1.43-3.77,0-7.54-.44-11.32-.67Z"/><path class="cls-1" d="M2298.89,1207.13l25.38,2.42c-.74,3.54-1,6.39-1.93,9-6.69,19.15-13.94,38.12-20.09,57.45-2.89,9.1-4.33,18.79-5.43,28.33-3.22,28.07-5.93,56.21-8.87,84.31-.24,2.32-.72,4.6-1.06,6.9-.64,4.26-3.13,6.46-7.38,6.71-9.29.54-18.58,1.15-27.88,1.54-5,.21-7.29-2.68-7.28-7.46,0-15-.48-29.94.33-44.86,2.33-42.67,17.87-81.61,35-120,2.46-5.52,5.57-10.29,10.93-13.85C2294,1215.38,2295.91,1211.05,2298.89,1207.13Z"/><path class="cls-1" d="M1950.87,1327.18c-10,19.2-19.11,36.48-27.91,53.93-4.93,9.77-9.45,19.76-13.85,29.79-3.07,7-8,9.94-15.65,9.62-12-.5-24-.3-35.92-.61-2.81-.07-5.61-1-9.08-1.64,1.06-3.2,1.42-5.52,2.52-7.41,14.24-24.4,28.63-48.7,42.82-73.12,1.75-3,2.57-6.58,4.23-11A225.13,225.13,0,0,1,1950.87,1327.18Z"/><path class="cls-1" d="M1921.84,1419.89c1.3-4.82,1.72-8.07,3-10.91,7.77-16.91,15.62-33.78,23.71-50.53,3-6.22,5.87-12.58,12.92-15.9,2.34-1.1,3.63-4.6,5.18-7.13,2.38-3.91,5.55-5.31,10.11-4.36,6.18,1.29,12.34,2.45,18.26,7.72-4.35,9.15-8.52,18.46-13.14,27.55-8,15.71-16.4,31.2-24.24,47-2.4,4.82-5.46,7.19-10.79,7C1939.05,1420.09,1931.21,1420.05,1921.84,1419.89Z"/><path class="cls-1" d="M1839,1337.1c-1.41,2.55-2.67,5.19-4.24,7.63-10.64,16.5-21.41,32.91-32,49.44-4.12,6.44-7.75,13.2-11.89,19.62-1.36,2.09-3.5,4.9-5.54,5.13-11.81,1.34-23.65,1-36,0,.09-8.38,4.44-13.64,7.9-19.05,4.3-6.72,9.35-12.94,14.06-19.39a67.34,67.34,0,0,1,14.73-14.6c4.82-3.54,7.92-9.46,11.63-14.43,1.33-1.79,1.76-4.88,3.42-5.71a111.53,111.53,0,0,1,36.57-11Z"/><path class="cls-1" d="M1972.27,1416.72c3.63-8.27,6.55-15.63,10-22.71,7.33-14.93,14.92-29.73,22.49-44.54,3.61-7.06,4.3-7.39,11.6-5a169,169,0,0,1,16.9,6.07c8,3.51,9.18,6,6.38,14a168.55,168.55,0,0,1-8.28,19.25c-4.45,8.9-9.49,17.52-14,26.39-1.61,3.12-3.19,5.92-7.06,6.19-11,.76-21.9,1.49-32.86,2.1C1976.24,1418.45,1975,1417.64,1972.27,1416.72Z"/><path class="cls-1" d="M1807,1416.94c5.39-9.55,10.43-19.16,16.12-28.36,7.16-11.58,14.85-22.83,22.32-34.22,2.58-3.94,5.27-7,10.79-7.61,6.55-.78,9.39-7,11.73-12.36,3-6.9,2.6-7.07,12.55-5.62a148.86,148.86,0,0,1-10.87,22c-11.32,19.54-22.9,38.93-34.25,58.45C1828.64,1420.9,1821.62,1423.11,1807,1416.94Z"/><path class="cls-1" d="M1667.58,1414.89c19.27-17.13,42.05-28.49,64.72-40l1.6,1.65a54.12,54.12,0,0,1-3.37,6.62c-6.8,9.84-13.88,19.49-20.55,29.41-3.07,4.56-6.58,6.9-12.32,6.5-7.62-.54-15.29-.25-22.93-.5a43.06,43.06,0,0,1-6.48-1.18C1668,1416.53,1667.8,1415.71,1667.58,1414.89Z"/><path class="cls-1" d="M2113.43,1406c-16.49,2.27-31.53,5.61-47.89,4.09,2.79-12.16,7.49-21.73,15.09-29.78C2090.22,1383.1,2105.75,1395,2113.43,1406Z"/><path class="cls-1" d="M2031,1411.11c4-7.71,7.54-14.4,11-21.1,3.22-6.18,6.35-12.41,9.65-18.55,1.72-3.18,3.82-7.76,7.94-5.19,2.73,1.71,5.83,7.33,4.9,9.63a237.71,237.71,0,0,1-16.51,33.78C2044.92,1414.76,2038.4,1414.38,2031,1411.11Z"/><path class="cls-1" d="M1724.89,1416.74c1-2.39,1.49-4.36,2.57-5.91,7.57-10.93,15.29-21.76,22.89-32.67a27.63,27.63,0,0,0,3.9-6.84c3.45-10.49,4-11,16.7-11.73-1,2.34-1.46,4.54-2.7,6.14-4.66,6.07-9.92,11.71-14.32,18q-10.61,15-20.3,30.66C1731.53,1417.73,1729.83,1419.57,1724.89,1416.74Z"/><path class="cls-1" d="M928.81,1637.69c1.29,3.22,2.68,5.25,2.86,7.38,2,24.47,5.77,48.92,1.19,73.52-4.29,23-10.46,45.59-21.84,66-7.87,14.15-17.85,27.21-27.67,40.16-8,10.58-19.86,16.68-31.32,22.71a577.37,577.37,0,0,1-105.46,42.38,230.15,230.15,0,0,1-40.71,7.79c2.23-1.28,4.34-2.88,6.72-3.78,17.93-6.74,33.89-16.73,49.18-28.18,26.43-19.8,51.67-40.9,74.49-64.81a164.19,164.19,0,0,0,29.39-42.51c3.32-6.9,6.32-14,10.18-20.58,10.48-17.84,13.41-38.18,19.43-57.47,1.53-4.89,2.93-8.63,7.36-12.14,4.66-3.7,7.58-9.87,10.6-15.33A36.13,36.13,0,0,1,928.81,1637.69Z"/><path class="cls-1" d="M855.07,1962.42c2.45-2.48,4.64-4.77,6.92-7,9.58-9.22,20-17.74,28.62-27.76,15.52-18,23.65-40.13,30-62.55,10.21-36.17,19.56-72.6,28.34-109.14,7.38-30.71,13.64-61.69,19.91-92.65,1.71-8.48,6.08-15.37,10.21-22.53.76-1.33,2.21-2.88,3.58-3.14,10.34-2,20.67-4.33,32.88-4.54-1.22,4.66-2.27,8-3,11.43-1.53,7.79-3.1,15.58-4.26,23.43-2.67,18.1-4.59,36.31-7.77,54.31-3.24,18.31-7.53,36.44-11.53,54.62-4.77,21.68-14.35,41.44-25.21,60.58-10.18,17.93-20.69,35.69-31.31,53.37a135.31,135.31,0,0,1-11.09,15.35c-11.15,13.66-22.16,27.47-33.94,40.57-5.5,6.11-12.45,11-19.13,15.93C863.07,1966.59,861.83,1966.24,855.07,1962.42Z"/><path class="cls-1" d="M1141.78,1629.36c.17,9.93-1.58,18.65-3.69,27.21-5.75,23.22-12.12,46.29-17.7,69.55-2.47,10.3-3.63,20.91-5.38,31.38-.57,3.44-1.16,6.88-1.73,10.32l-2.32.14c-.56-1.87-1.69-3.77-1.57-5.59q1-14.92,2.5-29.8c2.49-24.48,5.24-48.94,7.62-73.43,1.15-11.73,6.58-20.77,15.94-27.57C1136.88,1630.53,1138.92,1630.33,1141.78,1629.36Z"/><path class="cls-1" d="M1106.28,1984.29c-.82-3.7-2-7.37-2.41-11.12a593.45,593.45,0,0,1-2.48-108.68c1.18-18.26,2.72-36.49,4.17-54.73.8-10,1.65-19.9,2.71-29.83.21-2,1.48-3.89,3.89-5.58.31,1.43,1,2.89.89,4.29-.74,8.95-1.69,17.89-2.51,26.83-.87,9.6-2,19.19-2.45,28.81-.74,14.6-1.63,29.23-1.39,43.83.55,33.27,1.76,66.54,2.61,99.81.06,2-.59,4.12-.91,6.18Z"/><path class="cls-1" d="M1067.1,1641.38c7.22.1,9.14,3,6.92,11.57-3.33,12.86-7,25.65-10.47,38.47-7.78,28.3-12.46,57.19-16.3,86.24-5.47,41.28-9.71,82.66-9.39,124.38.05,6,.16,12,.65,18,1.87,23.22,3.78,46.44,6,69.64.55,5.93,2.09,11.77,3.17,17.65.43,2.29,1.27,4.61,1.13,6.87-.1,1.71-1.23,4.53-2.32,4.75-1.8.35-5-.39-5.76-1.72a161.33,161.33,0,0,1-10.16-20.44c-14.47-37-14.94-75.5-11.9-114.24,3.28-41.85,9.75-83.28,17.2-124.6,4.42-24.53,6.92-49.41,10.38-74.12,1.39-9.89,2.8-19.79,4.62-29.6C1052.82,1643.42,1055.89,1641.23,1067.1,1641.38Z"/><path class="cls-1" d="M1174.38,1660.05c2.73-23.75,4.55-28.83,16.5-33.57C1185.57,1638.74,1182.27,1650.42,1174.38,1660.05Z"/><path class="cls-1" d="M1136.84,581.11c-3.94-17.9-3.61-35.55-7.14-52.58-3.58-17.24-6.42-34.69-10.92-51.69-4.59-17.32-10.56-34.29-16.38-51.25-5.72-16.67-11.57-33.31-18.17-49.64-6.52-16.16-14-31.91-22.09-50,12.26,3.57,21.58,8,28.32,16.5,8.73,11,14.82,23.54,20.74,36.26,8.22,17.66,13,36.2,16.94,55.13,5.85,28,11.14,56.12,12.8,84.76.91,15.59,1.64,31.22,1.77,46.84C1142.75,570.48,1144.54,576.86,1136.84,581.11Z"/><path class="cls-1" d="M1192.94,433.91c1.63,1.68,4,3.07,4.77,5.07,10.35,26.61,22.18,52.76,25.63,81.54,1,7.93,2.25,15.81,3,23.76,1.16,12.72-.61,25-4.27,37.39-5,17-14.44,31.22-24.59,45.18a51.28,51.28,0,0,1-10,9.7c-2.09,1.64-5,2.18-9.38,3.94,1.31-4.27,1.68-6.48,2.63-8.41,8.84-17.88,12.87-37.13,14.35-56.71,1.82-24.18,2.44-48.48,2.88-72.74.35-19.64-.94-39.22-6.18-58.34-.76-2.79-.78-5.78-1.15-8.68C1191.4,435.05,1192.17,434.48,1192.94,433.91Z"/><path class="cls-1" d="M707,1779c9.24-3.71,18.27-8.12,27.77-11,18.86-5.7,35.09-15.44,49.93-28.27,17.06-14.75,31.69-31.35,42.3-51.25,3.74-7,6.26-14.64,9.57-21.88a106.93,106.93,0,0,1,5.4-9.25c7.68,4.44,7.91,10.62,7.29,17-1.16,12-6.55,22.37-13.57,31.71s-14.12,18.75-22.74,26.38c-8.07,7.15-17.75,12.87-27.46,17.7-21.11,10.51-42.1,21.48-65,28-2.23.63-4.44,1.41-6.72,1.83s-4.5.44-6.76.64Z"/><path class="cls-1" d="M1220.54,663.66a14.15,14.15,0,0,1,2.34-3c13.7-10,21.87-24.16,28.11-39.27,12-29.16,24.45-58.31,26.28-90.49.11-1.88,1-3.71,1.57-5.78,4.54.16,5,3.34,5.49,6.14,3.28,16.86,2.57,33.66-.15,50.57-3.65,22.69-14.38,41.54-28.54,59.31a92.27,92.27,0,0,1-24.4,21.52c-2.84,1.74-6.4,2.32-9.62,3.43Z"/><path class="cls-1" d="M1094.06,630.6c-1.61-1.71-3.64-3.18-4.76-5.16-19.47-34.39-40.06-68.14-56.07-104.46-6.39-14.47-15.94-27.54-24-41.31-3.33-5.72-6.88-11.38-9.49-17.44-2.49-5.79.26-8.85,6.66-8.33,7.26.59,12.31,5.06,16.29,10.47,5.49,7.49,10.7,15.23,15.41,23.22,6.41,10.87,12.17,22.12,18.32,33.13,7.84,14,12.7,29.1,17.39,44.42,5.63,18.41,13,36.27,19.64,54.39,1.11,3,2.07,6.09,3.1,9.14Z"/><path class="cls-1" d="M1306.24,646.52c3,11.93-5.28,22.73-19,24.75C1288.67,663.35,1299.57,649.15,1306.24,646.52Z"/><path class="cls-1" d="M1498.94,1681.91c-11.1,3.45-13.08,2.77-17.44-5.43C1487.73,1676.2,1493,1677.52,1498.94,1681.91Z"/><path class="cls-1" d="M977.84,571.73c8.56,1.91,37.34,26.21,44.36,36.7-7,.36-11.91-2.36-32.8-19.31C984.15,584.86,978.22,580.69,977.84,571.73Z"/><path class="cls-1" d="M991.55,686.42c12.38-7.62,25-8.48,37.85-5.3,7,1.74,13.57,5.33,20.28,8.2,2.8,1.2,5.87,2.7,4.26,6.55-1.37,3.28-4,5.26-7.89,4.76-.33,0-.67-.06-1-.13q-25.65-5.79-51.29-11.62C993.26,688.76,992.91,688,991.55,686.42Z"/><path d="M1242.66,1402.84c-.62-8.35,1.42-15.51,8.49-20.56C1250.38,1390,1248.78,1397.31,1242.66,1402.84Z"/><path class="cls-2" d="M1107,717l-5,1"/><path class="cls-2" d="M2198,621c-.67,1.33-1.33,2.67-2,4"/><path class="cls-2" d="M1273,1780v3"/><path class="cls-2" d="M1282,1729l3,10"/><path class="cls-2" d="M1485,1684l11,2"/><path class="cls-2" d="M1112,1771l-4,1"/><path class="cls-2" d="M631,1175l3,1"/></g></g></svg>